<svg width="168" height="31" viewBox="0 0 168 31" fill="none" xmlns="http://www.w3.org/2000/svg">
<path fill-rule="evenodd" clip-rule="evenodd" d="M9.0517 20.5H14.9444L15.2064 21.0996C15.3943 21.5297 15.498 22.0041 15.498 22.5C15.498 24.433 13.931 26 11.998 26C10.0651 26 8.49805 24.433 8.49805 22.5C8.49805 22.0041 8.60179 21.5297 8.78972 21.0996L9.0517 20.5ZM10.498 22.5C10.498 23.3284 11.1696 24 11.998 24C12.8265 24 13.498 23.3284 13.498 22.5H10.498Z" fill="#1E212C"/>
<path fill-rule="evenodd" clip-rule="evenodd" d="M12.0001 7.5C9.05519 7.5 6.50013 10.365 6.50013 13.5V16.8333C6.50013 18.1973 5.85796 19.4816 4.7668 20.3C4.74582 20.3157 4.73629 20.3278 4.73211 20.334C4.72775 20.3404 4.72512 20.3462 4.72333 20.3526C4.71935 20.3668 4.71756 20.3925 4.72806 20.424C4.73855 20.4555 4.75541 20.475 4.76711 20.484C4.77238 20.488 4.77801 20.4912 4.78534 20.4936C4.79235 20.496 4.80725 20.5 4.83347 20.5H19.1668C19.193 20.5 19.2079 20.496 19.2149 20.4936C19.2223 20.4912 19.2279 20.488 19.2332 20.484C19.2449 20.475 19.2617 20.4555 19.2722 20.424C19.2827 20.3925 19.2809 20.3668 19.2769 20.3526C19.2751 20.3462 19.2725 20.3404 19.2682 20.334C19.264 20.3278 19.2544 20.3157 19.2335 20.3C18.1423 19.4816 17.5001 18.1973 17.5001 16.8333V13.5C17.5001 10.365 14.9451 7.5 12.0001 7.5ZM4.50013 13.5C4.50013 9.45527 7.76538 5.5 12.0001 5.5C16.2349 5.5 19.5001 9.45527 19.5001 13.5V16.8333C19.5001 17.5678 19.8459 18.2593 20.4335 18.7C22.0565 19.9173 21.1956 22.5 19.1668 22.5H4.83347C2.80466 22.5 1.94376 19.9173 3.5668 18.7C4.15435 18.2593 4.50013 17.5678 4.50013 16.8333V13.5Z" fill="#1E212C"/>
<path fill-rule="evenodd" clip-rule="evenodd" d="M60.0001 18.125C59.4478 18.125 59.0001 17.6773 59.0001 17.125V11.5C59.0001 10.9477 59.4478 10.5 60.0001 10.5C60.5524 10.5 61.0001 10.9477 61.0001 11.5V17.125C61.0001 17.6773 60.5524 18.125 60.0001 18.125Z" fill="#1E212C"/>
<path d="M61.0001 20.5C61.0001 21.0523 60.5524 21.5 60.0001 21.5C59.4478 21.5 59.0001 21.0523 59.0001 20.5C59.0001 19.9477 59.4478 19.5 60.0001 19.5C60.5524 19.5 61.0001 19.9477 61.0001 20.5Z" fill="#1E212C"/>
<path fill-rule="evenodd" clip-rule="evenodd" d="M71.0839 20.9766C72.2628 22.9764 70.821 25.5 68.4995 25.5H51.5007C49.1792 25.5 47.7374 22.9764 48.9163 20.9766L57.9324 5.68136C58.3639 4.94931 59.1503 4.5 60.0001 4.5C60.8499 4.5 61.6363 4.94932 62.0678 5.68136L71.0839 20.9766ZM68.4995 23.5C69.2733 23.5 69.7539 22.6588 69.361 21.9922L60.3449 6.69699C60.2729 6.57492 60.1418 6.5 60.0001 6.5C59.8584 6.5 59.7273 6.57492 59.6553 6.69699L50.6392 21.9922C50.2462 22.6588 50.7268 23.5 51.5007 23.5H68.4995Z" fill="#1E212C"/>
<path fill-rule="evenodd" clip-rule="evenodd" d="M102.004 5.46655C102.623 4.84768 103.462 4.5 104.337 4.5L111.663 4.5C112.538 4.5 113.377 4.84768 113.996 5.46655L118.033 9.50385C118.652 10.1227 119 10.9621 119 11.8373V19.1627C119 20.0379 118.652 20.8773 118.033 21.4961L113.996 25.5335C113.377 26.1523 112.538 26.5 111.663 26.5L104.337 26.5C103.462 26.5 102.623 26.1523 102.004 25.5334L97.9665 21.4961C97.3477 20.8773 97 20.0379 97 19.1627L97 11.8373C97 10.9621 97.3477 10.1227 97.9665 9.50386L102.004 5.46655ZM104.337 6.5C103.993 6.5 103.662 6.63696 103.418 6.88076L99.3808 10.9181C99.137 11.1619 99 11.4925 99 11.8373V19.1627C99 19.5075 99.137 19.8381 99.3808 20.0819L103.418 24.1192C103.662 24.363 103.993 24.5 104.337 24.5L111.663 24.5C112.007 24.5 112.338 24.363 112.582 24.1192L116.619 20.0819C116.863 19.8381 117 19.5075 117 19.1627V11.8373C117 11.4925 116.863 11.1619 116.619 10.9181L112.582 6.88076C112.338 6.63696 112.007 6.5 111.663 6.5H104.337Z" fill="#1E212C"/>
<path d="M109 20C109 20.5523 108.552 21 108 21C107.448 21 107 20.5523 107 20C107 19.4477 107.448 19 108 19C108.552 19 109 19.4477 109 20Z" fill="#1E212C"/>
<path fill-rule="evenodd" clip-rule="evenodd" d="M108 17.625C107.448 17.625 107 17.1773 107 16.625V11C107 10.4477 107.448 10 108 10C108.552 10 109 10.4477 109 11V16.625C109 17.1773 108.552 17.625 108 17.625Z" fill="#1E212C"/>
<path fill-rule="evenodd" clip-rule="evenodd" d="M156 6.5C151.029 6.5 147 10.5294 147 15.5C147 20.4706 151.029 24.5 156 24.5C160.971 24.5 165 20.4706 165 15.5C165 10.5294 160.971 6.5 156 6.5ZM145 15.5C145 9.42487 149.925 4.5 156 4.5C162.075 4.5 167 9.42487 167 15.5C167 21.5751 162.075 26.5 156 26.5C149.925 26.5 145 21.5751 145 15.5Z" fill="#1E212C"/>
<path d="M157 19.5C157 20.0523 156.552 20.5 156 20.5C155.448 20.5 155 20.0523 155 19.5C155 18.9477 155.448 18.5 156 18.5C156.552 18.5 157 18.9477 157 19.5Z" fill="#1E212C"/>
<path fill-rule="evenodd" clip-rule="evenodd" d="M156 17.125C155.448 17.125 155 16.6773 155 16.125V10.5C155 9.94772 155.448 9.5 156 9.5C156.552 9.5 157 9.94772 157 10.5V16.125C157 16.6773 156.552 17.125 156 17.125Z" fill="#1E212C"/>
</svg>
