<svg width="168" height="24" viewBox="0 0 168 24" fill="none" xmlns="http://www.w3.org/2000/svg">
<path fill-rule="evenodd" clip-rule="evenodd" d="M19.7071 8.29289C20.0976 8.68342 20.0976 9.31658 19.7071 9.70711L12.7071 16.7071C12.3166 17.0976 11.6834 17.0976 11.2929 16.7071L4.29289 9.70711C3.90237 9.31658 3.90237 8.68342 4.29289 8.29289C4.68342 7.90237 5.31658 7.90237 5.70711 8.29289L12 14.5858L18.2929 8.29289C18.6834 7.90237 19.3166 7.90237 19.7071 8.29289Z" fill="#1E212C"/>
<path fill-rule="evenodd" clip-rule="evenodd" d="M52.2929 15.7071C51.9024 15.3166 51.9024 14.6834 52.2929 14.2929L59.2929 7.29289C59.6834 6.90237 60.3166 6.90237 60.7071 7.29289L67.7071 14.2929C68.0976 14.6834 68.0976 15.3166 67.7071 15.7071C67.3166 16.0976 66.6834 16.0976 66.2929 15.7071L60 9.41421L53.7071 15.7071C53.3166 16.0976 52.6834 16.0976 52.2929 15.7071Z" fill="#1E212C"/>
<path fill-rule="evenodd" clip-rule="evenodd" d="M104.293 4.29289C104.683 3.90237 105.317 3.90237 105.707 4.29289L112.707 11.2929C113.098 11.6834 113.098 12.3166 112.707 12.7071L105.707 19.7071C105.317 20.0976 104.683 20.0976 104.293 19.7071C103.902 19.3166 103.902 18.6834 104.293 18.2929L110.586 12L104.293 5.70711C103.902 5.31658 103.902 4.68342 104.293 4.29289Z" fill="#1E212C"/>
<path fill-rule="evenodd" clip-rule="evenodd" d="M159.707 4.29289C159.317 3.90237 158.683 3.90237 158.293 4.29289L151.293 11.2929C150.902 11.6834 150.902 12.3166 151.293 12.7071L158.293 19.7071C158.683 20.0976 159.317 20.0976 159.707 19.7071C160.098 19.3166 160.098 18.6834 159.707 18.2929L153.414 12L159.707 5.70711C160.098 5.31658 160.098 4.68342 159.707 4.29289Z" fill="#1E212C"/>
</svg>
