<svg width="264" height="24" viewBox="0 0 264 24" fill="none" xmlns="http://www.w3.org/2000/svg">
<path fill-rule="evenodd" clip-rule="evenodd" d="M6.5 12C6.5 8.96243 8.96243 6.5 12 6.5C15.0376 6.5 17.5 8.96243 17.5 12C17.5 15.0376 15.0376 17.5 12 17.5C8.96243 17.5 6.5 15.0376 6.5 12ZM12 8.5C10.067 8.5 8.5 10.067 8.5 12C8.5 13.933 10.067 15.5 12 15.5C13.933 15.5 15.5 13.933 15.5 12C15.5 10.067 13.933 8.5 12 8.5Z" fill="#1E212C"/>
<path fill-rule="evenodd" clip-rule="evenodd" d="M12 3.25C7.16751 3.25 3.25 7.16751 3.25 12C3.25 16.8325 7.16751 20.75 12 20.75C12.5523 20.75 13 21.1977 13 21.75C13 22.3023 12.5523 22.75 12 22.75C6.06294 22.75 1.25 17.9371 1.25 12C1.25 6.06294 6.06294 1.25 12 1.25C17.9371 1.25 22.75 6.06294 22.75 12C22.75 13.1233 22.5505 14.7484 22.0293 16.1288C21.5428 17.4173 20.5647 19 18.75 19C17.8608 19 16.9774 18.767 16.3394 18.0611C15.7212 17.3771 15.5 16.4292 15.5 15.375V8.25C15.5 7.69772 15.9477 7.25 16.5 7.25C17.0523 7.25 17.5 7.69772 17.5 8.25V15.375C17.5 16.1958 17.6789 16.5604 17.8232 16.7201C17.9479 16.858 18.1895 17 18.75 17C19.1853 17 19.7072 16.6168 20.1582 15.4224C20.5745 14.3199 20.75 12.945 20.75 12C20.75 7.16751 16.8325 3.25 12 3.25Z" fill="#1E212C"/>
<path fill-rule="evenodd" clip-rule="evenodd" d="M69.923 10.5674C69.7806 11.5541 69.443 12.4919 68.9428 13.3544C68.9803 13.5679 68.9995 13.7837 68.9995 14.0005C68.9995 14.7533 68.7814 15.4738 68.3774 16.1284C68.1757 16.4551 68.1238 16.838 68.1038 17.0909C68.0809 17.3808 68.0886 17.6981 68.1093 18.0028C68.1325 18.3447 68.1746 18.7036 68.2227 19.0422C67.8324 18.9284 67.4093 18.8141 67.0056 18.723C66.6698 18.6472 66.3262 18.5826 66.0149 18.5505C65.7434 18.5224 65.3511 18.5007 65.0003 18.6142C64.2332 18.8621 63.3891 19.0005 62.4995 19.0005C61.4416 19.0005 60.47 18.8127 59.6184 18.4865C59.4135 18.4957 59.2072 18.5005 58.9995 18.5005C57.7949 18.5005 56.6355 18.342 55.5508 18.0493C57.1277 19.8731 59.7274 21.0005 62.4995 21.0005C63.5825 21.0005 64.6219 20.8342 65.5797 20.5287C65.5814 20.5287 65.5845 20.5287 65.589 20.5286C65.6136 20.5281 65.6819 20.5267 65.8094 20.5399C66.01 20.5606 66.268 20.6068 66.5655 20.674C67.1578 20.8076 67.8235 21.0048 68.3423 21.1694C69.4424 21.5187 70.5084 20.5586 70.3118 19.4422C70.2271 18.9617 70.1392 18.3753 70.1047 17.8673C70.0874 17.6118 70.0855 17.4022 70.0976 17.2483C70.1026 17.1845 70.1091 17.1446 70.1132 17.1233C70.6758 16.1913 70.9995 15.1302 70.9995 14.0005C70.9995 12.7269 70.604 11.5639 69.923 10.5674Z" fill="#1E212C"/>
<path fill-rule="evenodd" clip-rule="evenodd" d="M53.5966 5.69816C52.2487 6.72895 51.4996 8.08209 51.4996 9.5C51.4996 10.207 51.6837 10.888 52.029 11.5212C52.1605 11.7624 52.1978 12.0112 52.2112 12.1796C52.2257 12.3633 52.2185 12.552 52.2025 12.7285C52.1705 13.0819 52.0942 13.4823 52.0027 13.8766C51.8957 14.3379 51.7586 14.8299 51.6194 15.2918C52.1477 15.0998 52.725 14.903 53.2724 14.7434C53.7148 14.6143 54.1615 14.5023 54.5591 14.4394C54.9016 14.3853 55.3986 14.3321 55.8266 14.4801C56.7869 14.8123 57.8612 15 58.9996 15C61.1468 15 63.0537 14.3333 64.4026 13.3018C65.7505 12.271 66.4996 10.9179 66.4996 9.5C66.4996 8.08209 65.7505 6.72895 64.4026 5.69816C63.0537 4.66667 61.1468 4 58.9996 4C56.8524 4 54.9455 4.66667 53.5966 5.69816ZM52.3817 4.10945C54.1093 2.78841 56.4523 2 58.9996 2C61.5468 2 63.8899 2.78841 65.6175 4.10945C67.3459 5.43119 68.4996 7.32806 68.4996 9.5C68.4996 11.6719 67.3459 13.5688 65.6175 14.8906C63.8899 16.2116 61.5468 17 58.9996 17C57.6565 17 56.3737 16.7811 55.2089 16.3826C55.2077 16.3859 55.1132 16.3767 54.8715 16.4149C54.5928 16.459 54.2371 16.5453 53.8325 16.6633C53.0271 16.8983 52.1225 17.2308 51.4335 17.4989C50.2399 17.9634 49.0239 16.8171 49.4261 15.5959C49.6393 14.9487 49.8906 14.1308 50.0545 13.4246C50.137 13.0689 50.1906 12.7698 50.2106 12.5483C50.2176 12.4714 50.2194 12.4154 50.219 12.3775C49.7587 11.4979 49.4996 10.5252 49.4996 9.5C49.4996 7.32806 50.6533 5.43119 52.3817 4.10945Z" fill="#1E212C"/>
<path fill-rule="evenodd" clip-rule="evenodd" d="M118.75 18V7C118.75 5.34314 117.407 4 115.75 4L100.25 4.00002C98.5931 4.00002 97.25 5.34316 97.25 7.00002V18C97.25 19.6568 98.5931 21 100.25 21L115.75 21C117.407 21 118.75 19.6568 118.75 18ZM116.75 9.25946V18C116.75 18.5523 116.302 19 115.75 19L100.25 19C99.6977 19 99.25 18.5523 99.25 18L99.25 9.25933L106.313 14.0623C107.331 14.7546 108.669 14.7546 109.687 14.0623L116.75 9.25946ZM116.739 6.84861C116.666 6.36816 116.251 6 115.75 6L100.25 6.00002C99.7492 6.00002 99.3344 6.36811 99.2614 6.84849L107.438 12.4084C107.777 12.6392 108.223 12.6392 108.562 12.4084L116.739 6.84861Z" fill="#1E212C"/>
<path fill-rule="evenodd" clip-rule="evenodd" d="M164.75 17.7504V9.00042C164.75 8.44814 165.198 8.00042 165.75 8.00042C166.302 8.00042 166.75 8.44814 166.75 9.00042V17.7504C166.75 20.5118 164.511 22.7504 161.75 22.7504H150.25C147.489 22.7504 145.25 20.5118 145.25 17.7504L145.25 9.00044C145.25 8.44816 145.698 8.00044 146.25 8.00044C146.802 8.00044 147.25 8.44816 147.25 9.00044L147.25 17.7504C147.25 19.4073 148.593 20.7504 150.25 20.7504H161.75C163.407 20.7504 164.75 19.4073 164.75 17.7504Z" fill="#1E212C"/>
<path fill-rule="evenodd" clip-rule="evenodd" d="M145.443 9.21544C145.768 9.66135 146.394 9.75867 146.84 9.43282L155.41 3.17015C155.761 2.91334 156.239 2.91334 156.59 3.17015L165.16 9.43282C165.606 9.75867 166.232 9.66135 166.557 9.21544C166.883 8.76953 166.786 8.14389 166.34 7.81803L157.77 1.55537C156.716 0.78493 155.284 0.78493 154.23 1.55537L145.66 7.81803C145.214 8.14389 145.117 8.76953 145.443 9.21544Z" fill="#1E212C"/>
<path fill-rule="evenodd" clip-rule="evenodd" d="M145.428 8.05621C145.742 7.60213 146.365 7.48887 146.819 7.80323L154.292 12.977C155.32 13.6882 156.68 13.6882 157.708 12.977L165.181 7.80323C165.635 7.48887 166.258 7.60213 166.572 8.05621C166.887 8.5103 166.773 9.13325 166.319 9.44762L158.846 14.6213C157.134 15.8067 154.866 15.8067 153.154 14.6213L145.681 9.44762C145.227 9.13325 145.113 8.5103 145.428 8.05621Z" fill="#1E212C"/>
<path fill-rule="evenodd" clip-rule="evenodd" d="M212.75 14.75L212.75 6.25002C212.75 4.59317 211.407 3.25003 209.75 3.25002L198.25 3.25C196.593 3.25 195.25 4.59314 195.25 6.25L195.25 20.5568L199.18 17.75L209.75 17.75C211.407 17.75 212.75 16.4068 212.75 14.75ZM214.75 6.25002L214.75 14.75C214.75 17.5114 212.511 19.75 209.75 19.75L199.82 19.75L196.412 22.1843C195.089 23.1298 193.25 22.1835 193.25 20.5568L193.25 6.25C193.25 3.48857 195.489 1.24999 198.25 1.25L209.75 1.25002C212.511 1.25003 214.75 3.4886 214.75 6.25002Z" fill="#1E212C"/>
<path fill-rule="evenodd" clip-rule="evenodd" d="M248.5 2.92188C247.672 2.92188 247 3.59345 247 4.42188V19.5781C247 20.4066 247.672 21.0781 248.5 21.0781H255.5C256.328 21.0781 257 20.4066 257 19.5781V4.42188C257 3.59345 256.328 2.92188 255.5 2.92188H255.417L255.173 3.50633C255.018 3.87894 254.654 4.12165 254.25 4.12165H249.75C249.346 4.12165 248.982 3.87894 248.827 3.50633L248.583 2.92188H248.5ZM245 4.42188C245 2.48888 246.567 0.921875 248.5 0.921875H255.5C257.433 0.921875 259 2.48888 259 4.42188V19.5781C259 21.5111 257.433 23.0781 255.5 23.0781H248.5C246.567 23.0781 245 21.5111 245 19.5781V4.42188Z" fill="#1E212C"/>
</svg>
