<svg width="360" height="24" viewBox="0 0 360 24" fill="none" xmlns="http://www.w3.org/2000/svg">
<path fill-rule="evenodd" clip-rule="evenodd" d="M16.0678 10.411C17.1151 11.2115 17.1151 12.7886 16.0678 13.5891L11.4879 17.0895C10.1718 18.0954 8.27336 17.1569 8.27336 15.5005V8.49961C8.27336 6.84313 10.1718 5.90469 11.4879 6.91058L16.0678 10.411ZM14.8533 12L10.2734 8.49961L10.2734 15.5005L14.8533 12Z" fill="#1E212C"/>
<path fill-rule="evenodd" clip-rule="evenodd" d="M12 3C7.02944 3 3 7.02944 3 12C3 16.9706 7.02944 21 12 21C16.9706 21 21 16.9706 21 12C21 7.02944 16.9706 3 12 3ZM1 12C1 5.92487 5.92487 1 12 1C18.0751 1 23 5.92487 23 12C23 18.0751 18.0751 23 12 23C5.92487 23 1 18.0751 1 12Z" fill="#1E212C"/>
<path fill-rule="evenodd" clip-rule="evenodd" d="M54.2 6.39961C54.2 3.19636 56.7967 0.599609 60 0.599609C63.2033 0.599609 65.8 3.19636 65.8 6.39961V11.1996C65.8 14.4029 63.2033 16.9996 60 16.9996C56.7967 16.9996 54.2 14.4029 54.2 11.1996V6.39961ZM60 2.59961C57.9013 2.59961 56.2 4.30093 56.2 6.39961V11.1996C56.2 13.2983 57.9013 14.9996 60 14.9996C62.0987 14.9996 63.8 13.2983 63.8 11.1996V6.39961C63.8 4.30093 62.0987 2.59961 60 2.59961Z" fill="#1E212C"/>
<path fill-rule="evenodd" clip-rule="evenodd" d="M52 8.59961C52.5523 8.59961 53 9.04732 53 9.59961V11.1996C53 15.0656 56.134 18.1996 60 18.1996C63.866 18.1996 67 15.0656 67 11.1996V9.59961C67 9.04732 67.4477 8.59961 68 8.59961C68.5523 8.59961 69 9.04732 69 9.59961V11.1996C69 16.1702 64.9706 20.1996 60 20.1996C55.0294 20.1996 51 16.1702 51 11.1996V9.59961C51 9.04732 51.4477 8.59961 52 8.59961Z" fill="#1E212C"/>
<path fill-rule="evenodd" clip-rule="evenodd" d="M60 18.9996C60.5523 18.9996 61 19.4473 61 19.9996V21.3996H63.2C63.7523 21.3996 64.2 21.8473 64.2 22.3996C64.2 22.9519 63.7523 23.3996 63.2 23.3996H56.8C56.2477 23.3996 55.8 22.9519 55.8 22.3996C55.8 21.8473 56.2477 21.3996 56.8 21.3996H59V19.9996C59 19.4473 59.4477 18.9996 60 18.9996Z" fill="#1E212C"/>
<path fill-rule="evenodd" clip-rule="evenodd" d="M107.553 1.10557C107.834 0.964809 108.166 0.964809 108.447 1.10557L118.447 6.10557C118.786 6.27497 119 6.62123 119 7C119 7.37877 118.786 7.72504 118.447 7.89443L108.447 12.8944C108.166 13.0352 107.834 13.0352 107.553 12.8944L97.5528 7.89443C97.214 7.72504 97 7.37877 97 7C97 6.62123 97.214 6.27497 97.5528 6.10557L107.553 1.10557ZM100.236 7L108 10.882L115.764 7L108 3.11803L100.236 7Z" fill="#1E212C"/>
<path fill-rule="evenodd" clip-rule="evenodd" d="M97.1055 11.5528C97.3525 11.0588 97.9532 10.8586 98.4472 11.1056L108 15.882L117.553 11.1056C118.047 10.8586 118.647 11.0588 118.894 11.5528C119.141 12.0468 118.941 12.6474 118.447 12.8944L108.447 17.8944C108.166 18.0352 107.834 18.0352 107.553 17.8944L97.5528 12.8944C97.0588 12.6474 96.8586 12.0468 97.1055 11.5528Z" fill="#1E212C"/>
<path fill-rule="evenodd" clip-rule="evenodd" d="M97.1055 16.5528C97.3525 16.0588 97.9532 15.8586 98.4472 16.1056L108 20.882L117.553 16.1056C118.047 15.8586 118.647 16.0588 118.894 16.5528C119.141 17.0468 118.941 17.6474 118.447 17.8944L108.447 22.8944C108.166 23.0352 107.834 23.0352 107.553 22.8944L97.5528 17.8944C97.0588 17.6474 96.8586 17.0468 97.1055 16.5528Z" fill="#1E212C"/>
<g clip-path="url(#clip0_2491_3756)">
<path fill-rule="evenodd" clip-rule="evenodd" d="M162.43 3.93473C160.624 2.12856 157.696 2.12856 155.89 3.93473L149.548 10.2765C149.157 10.667 148.524 10.667 148.134 10.2765C147.743 9.88593 147.743 9.25276 148.134 8.86224L154.475 2.52052C157.063 -0.0667034 161.257 -0.0667034 163.844 2.52052C166.432 5.10774 166.432 9.30246 163.844 11.8897L155.314 20.4205C153.459 22.2755 150.451 22.2755 148.596 20.4205C146.741 18.5655 146.741 15.5579 148.596 13.7029L148.6 13.6991L148.6 13.6991L155.04 7.3282C155.041 7.32749 155.042 7.32678 155.042 7.32608C156.141 6.2301 157.925 6.14718 159.072 7.29351C160.194 8.41627 160.194 10.2366 159.072 11.3594L154.564 15.8672C154.173 16.2577 153.54 16.2577 153.15 15.8672C152.759 15.4767 152.759 14.8435 153.15 14.453L157.657 9.94516C157.999 9.60345 157.999 9.04943 157.657 8.70772C157.34 8.39033 156.821 8.37594 156.455 8.74241L156.451 8.74624L156.451 8.74623L150.01 15.1172C150.01 15.1178 150.009 15.1184 150.009 15.119C148.936 16.1931 148.937 17.9329 150.01 19.0062C151.084 20.0802 152.826 20.0802 153.9 19.0062L162.43 10.4755C164.236 8.6693 164.236 5.74091 162.43 3.93473Z" fill="#1E212C"/>
</g>
<path fill-rule="evenodd" clip-rule="evenodd" d="M203.293 1.54289C203.683 1.15237 204.317 1.15237 204.707 1.54289L209.207 6.04289C209.598 6.43342 209.598 7.06658 209.207 7.45711C208.817 7.84763 208.183 7.84763 207.793 7.45711L205 4.66421V17.25C205 17.8023 204.552 18.25 204 18.25C203.448 18.25 203 17.8023 203 17.25V4.66421L200.207 7.45711C199.817 7.84763 199.183 7.84763 198.793 7.45711C198.402 7.06658 198.402 6.43342 198.793 6.04289L203.293 1.54289ZM194.25 14C194.802 14 195.25 14.4477 195.25 15V18.75C195.25 19.8546 196.145 20.75 197.25 20.75H210.75C211.855 20.75 212.75 19.8546 212.75 18.75V15C212.75 14.4477 213.198 14 213.75 14C214.302 14 214.75 14.4477 214.75 15V18.75C214.75 20.9591 212.959 22.75 210.75 22.75H197.25C195.041 22.75 193.25 20.9591 193.25 18.75V15C193.25 14.4477 193.698 14 194.25 14Z" fill="#1E212C"/>
<path fill-rule="evenodd" clip-rule="evenodd" d="M258.765 19.7597V15.808C258.765 15.27 259.201 14.8339 259.739 14.8339C260.277 14.8339 260.713 15.27 260.713 15.808V19.7597C260.713 22.1015 258.815 23.9999 256.474 23.9999L244.24 23.9999C241.899 23.9999 240 22.1015 240 19.7597L240 7.52565C240 5.18386 241.899 3.28547 244.24 3.28547L248.192 3.28549C248.73 3.28549 249.166 3.72163 249.166 4.25965C249.166 4.79766 248.73 5.23381 248.192 5.23381L244.24 5.23379C242.975 5.23379 241.949 6.25989 241.949 7.52565L241.949 19.7597C241.949 21.0255 242.975 22.0516 244.24 22.0516H256.474C257.739 22.0516 258.765 21.0255 258.765 19.7597Z" fill="#1E212C"/>
<path fill-rule="evenodd" clip-rule="evenodd" d="M260.43 3.57075C260.81 3.95118 260.81 4.56798 260.43 4.94842L249.604 15.775C249.223 16.1554 248.607 16.1554 248.226 15.775C247.846 15.3946 247.846 14.7778 248.226 14.3973L259.052 3.57075C259.432 3.19031 260.049 3.19031 260.43 3.57075Z" fill="#1E212C"/>
<path fill-rule="evenodd" clip-rule="evenodd" d="M259.742 3.29573C260.28 3.29671 260.715 3.73257 260.715 4.26989L260.715 10.0334C260.715 10.5714 260.279 11.0076 259.741 11.0076C259.203 11.0076 258.767 10.5715 258.767 10.0334L258.767 5.24227L253.965 5.23347C253.427 5.23249 252.992 4.79555 252.993 4.25753C252.994 3.71952 253.431 3.28417 253.969 3.28516L259.742 3.29573Z" fill="#1E212C"/>
<path fill-rule="evenodd" clip-rule="evenodd" d="M296 13.5C296 12.9477 296.448 12.5 297 12.5H303C303.552 12.5 304 12.9477 304 13.5C304 14.0523 303.552 14.5 303 14.5H297C296.448 14.5 296 14.0523 296 13.5Z" fill="#1E212C"/>
<path fill-rule="evenodd" clip-rule="evenodd" d="M296 17.25C296 16.6977 296.448 16.25 297 16.25H300C300.552 16.25 301 16.6977 301 17.25C301 17.8023 300.552 18.25 300 18.25H297C296.448 18.25 296 17.8023 296 17.25Z" fill="#1E212C"/>
<path fill-rule="evenodd" clip-rule="evenodd" d="M297.043 1.54289C297.23 1.35536 297.485 1.25 297.75 1.25H304.5C306.709 1.25 308.5 3.04086 308.5 5.25L308.5 18.75C308.5 20.9591 306.709 22.75 304.5 22.75H295.5C293.291 22.75 291.5 20.9591 291.5 18.75L291.5 7.5C291.5 7.23478 291.605 6.98043 291.793 6.79289L297.043 1.54289ZM297.5 3.91424V7.25H294.164L297.5 3.91424ZM293.5 9.25L293.5 18.75C293.5 19.8546 294.395 20.75 295.5 20.75H304.5C305.605 20.75 306.5 19.8546 306.5 18.75L306.5 5.25C306.5 4.14543 305.605 3.25 304.5 3.25H299.5V8.25C299.5 8.80228 299.052 9.25 298.5 9.25H293.5Z" fill="#1E212C"/>
<path fill-rule="evenodd" clip-rule="evenodd" d="M354.375 3.25C353.063 3.25 352 4.31332 352 5.625C352 5.88361 352.041 6.13068 352.116 6.3612C352.426 7.31368 353.322 8 354.375 8C355.687 8 356.75 6.93668 356.75 5.625C356.75 4.31332 355.687 3.25 354.375 3.25ZM350 5.625C350 3.20875 351.959 1.25 354.375 1.25C356.791 1.25 358.75 3.20875 358.75 5.625C358.75 8.04125 356.791 10 354.375 10C352.84 10 351.492 9.21034 350.711 8.01651L345.84 10.4561C346.063 11.2703 346.047 12.1392 345.795 12.9444L351.125 15.4466C351.925 14.5594 353.084 14 354.375 14C356.791 14 358.75 15.9588 358.75 18.375C358.75 20.7912 356.791 22.75 354.375 22.75C351.959 22.75 350 20.7912 350 18.375C350 17.9696 350.055 17.5763 350.159 17.2027L344.766 14.6707C343.971 15.4895 342.858 16 341.625 16C339.209 16 337.25 14.0412 337.25 11.625C337.25 9.20875 339.209 7.25 341.625 7.25C342.918 7.25 344.079 7.811 344.879 8.70049L350.028 6.12188C350.009 5.95859 350 5.79278 350 5.625ZM341.625 9.25C340.313 9.25 339.25 10.3133 339.25 11.625C339.25 12.9367 340.313 14 341.625 14C342.468 14 343.21 13.5612 343.633 12.8948C344.093 12.1697 344.118 11.2121 343.697 10.4638C343.289 9.73724 342.513 9.25 341.625 9.25ZM354.375 16C353.493 16 352.722 16.48 352.312 17.1978C352.114 17.5439 352 17.9447 352 18.375C352 19.6867 353.063 20.75 354.375 20.75C355.687 20.75 356.75 19.6867 356.75 18.375C356.75 17.0633 355.687 16 354.375 16Z" fill="#1E212C"/>
<defs>
<clipPath id="clip0_2491_3756">
<rect width="24" height="24" fill="white" transform="translate(144)"/>
</clipPath>
</defs>
</svg>
