<svg width="120" height="24" viewBox="0 0 120 24" fill="none" xmlns="http://www.w3.org/2000/svg">
<path fill-rule="evenodd" clip-rule="evenodd" d="M12 1C12.5523 1 13 1.44772 13 2V11H22C22.5523 11 23 11.4477 23 12C23 12.5523 22.5523 13 22 13H13V22C13 22.5523 12.5523 23 12 23C11.4477 23 11 22.5523 11 22V13H2C1.44772 13 1 12.5523 1 12C1 11.4477 1.44772 11 2 11H11V2C11 1.44772 11.4477 1 12 1Z" fill="#1E212C"/>
<path fill-rule="evenodd" clip-rule="evenodd" d="M49 12C49 11.4477 49.4477 11 50 11V12V13C49.4477 13 49 12.5523 49 12ZM70 12L69.9999 13H50V12V11H69.9994L70 12ZM70 12L69.9999 13C70.5522 13 71 12.5523 71 12C71 11.4477 70.5517 11 69.9994 11L70 12Z" fill="#1E212C"/>
<path fill-rule="evenodd" clip-rule="evenodd" d="M100.293 4.29289C100.683 3.90237 101.317 3.90237 101.707 4.29289L108 10.5858L114.293 4.29289C114.683 3.90237 115.317 3.90237 115.707 4.29289C116.098 4.68342 116.098 5.31658 115.707 5.70711L109.414 12L115.707 18.2929C116.098 18.6834 116.098 19.3166 115.707 19.7071C115.317 20.0976 114.683 20.0976 114.293 19.7071L108 13.4142L101.707 19.7071C101.317 20.0976 100.683 20.0976 100.293 19.7071C99.9024 19.3166 99.9024 18.6834 100.293 18.2929L106.586 12L100.293 5.70711C99.9024 5.31658 99.9024 4.68342 100.293 4.29289Z" fill="#1E212C"/>
</svg>
