<svg width="216" height="24" viewBox="0 0 216 24" fill="none" xmlns="http://www.w3.org/2000/svg">
<path fill-rule="evenodd" clip-rule="evenodd" d="M20.75 17.75V13C20.75 11.3432 19.4069 10 17.75 10L6.25001 10C4.59315 10 3.25 11.3431 3.25 13L3.25 17.75C3.25 19.4069 4.59315 20.75 6.25 20.75H17.75C19.4069 20.75 20.75 19.4069 20.75 17.75ZM22.75 13V17.75C22.75 20.5114 20.5114 22.75 17.75 22.75H6.25C3.48857 22.75 1.25 20.5114 1.25 17.75L1.25 13C1.25 10.2386 3.48858 8 6.25001 8L17.75 8.00002C20.5114 8.00003 22.75 10.2386 22.75 13Z" fill="#1E212C"/>
<path fill-rule="evenodd" clip-rule="evenodd" d="M12 3.25C9.23858 3.25 7 5.48858 7 8.25H5C5 4.38401 8.13401 1.25 12 1.25C15.866 1.25 19 4.38401 19 8.25H17C17 5.48858 14.7614 3.25 12 3.25Z" fill="#1E212C"/>
<path fill-rule="evenodd" clip-rule="evenodd" d="M12 12.5C12.5523 12.5 13 12.9477 13 13.5V16.5C13 17.0523 12.5523 17.5 12 17.5C11.4477 17.5 11 17.0523 11 16.5V13.5C11 12.9477 11.4477 12.5 12 12.5Z" fill="#1E212C"/>
<path fill-rule="evenodd" clip-rule="evenodd" d="M68.75 17.75V13C68.75 11.3432 67.4069 10 65.75 10L54.25 10C52.5932 10 51.25 11.3431 51.25 13L51.25 17.75C51.25 19.4069 52.5931 20.75 54.25 20.75H65.75C67.4069 20.75 68.75 19.4069 68.75 17.75ZM70.75 13V17.75C70.75 20.5114 68.5114 22.75 65.75 22.75H54.25C51.4886 22.75 49.25 20.5114 49.25 17.75L49.25 13C49.25 10.2386 51.4886 8 54.25 8L65.75 8.00002C68.5114 8.00003 70.75 10.2386 70.75 13Z" fill="#1E212C"/>
<path fill-rule="evenodd" clip-rule="evenodd" d="M60 3.25C57.2386 3.25 55 5.48858 55 8.25C55 8.80228 54.5523 9.25 54 9.25C53.4477 9.25 53 8.80228 53 8.25C53 4.38401 56.134 1.25 60 1.25C61.6544 1.25 63.1773 1.8252 64.3755 2.78572C64.8064 3.13116 64.8757 3.76052 64.5303 4.19144C64.1848 4.62236 63.5555 4.69166 63.1245 4.34622C62.2683 3.65987 61.1834 3.25 60 3.25Z" fill="#1E212C"/>
<path fill-rule="evenodd" clip-rule="evenodd" d="M60 12.5C60.5523 12.5 61 12.9477 61 13.5V16.5C61 17.0523 60.5523 17.5 60 17.5C59.4477 17.5 59 17.0523 59 16.5V13.5C59 12.9477 59.4477 12.5 60 12.5Z" fill="#1E212C"/>
<path fill-rule="evenodd" clip-rule="evenodd" d="M99 6.12703C99 3.29545 101.239 1 104 1H112C114.761 1 117 3.29545 117 6.12703V12.086C117 16.4072 114.272 19.9381 110.827 22.1636C109.1 23.2788 106.9 23.2788 105.173 22.1636C101.728 19.9381 99 16.4072 99 12.086V6.12703ZM104 3.05081C102.343 3.05081 101 4.42808 101 6.12703V12.086C101 15.4557 103.137 18.4245 106.239 20.4284C107.314 21.1228 108.686 21.1228 109.761 20.4284C112.863 18.4245 115 15.4557 115 12.086V6.12703C115 4.42808 113.657 3.05081 112 3.05081H104Z" fill="#1E212C"/>
<path fill-rule="evenodd" clip-rule="evenodd" d="M111.64 8.23178C112.064 8.58534 112.122 9.21591 111.768 9.64018L108.018 14.1402C107.847 14.3461 107.6 14.4745 107.332 14.4966C107.065 14.5187 106.801 14.4327 106.597 14.2578L104.347 12.3202C103.929 11.9599 103.882 11.3284 104.242 10.9099C104.603 10.4914 105.234 10.4443 105.653 10.8047L107.132 12.0791L110.232 8.35982C110.585 7.93554 111.216 7.87821 111.64 8.23178Z" fill="#1E212C"/>
<path d="M146.641 8.51786C149.345 6.26187 152.458 5 155.75 5C159.042 5 162.155 6.26187 164.859 8.51786C165.283 8.87166 165.914 8.81469 166.268 8.39061C166.622 7.96654 166.565 7.33594 166.141 6.98214C163.134 4.47356 159.579 3 155.75 3C151.921 3 148.366 4.47356 145.359 6.98214C144.935 7.33594 144.878 7.96654 145.232 8.39061C145.586 8.81469 146.217 8.87166 146.641 8.51786Z" fill="#1E212C"/>
<path fill-rule="evenodd" clip-rule="evenodd" d="M148.101 9.68903C149.899 8.17064 152.464 6.75 155.375 6.75C158.286 6.75 160.851 8.17064 162.649 9.68903C163.556 10.4544 164.299 11.2704 164.825 11.9993C165.087 12.363 165.305 12.7199 165.463 13.0508C165.607 13.3547 165.75 13.7383 165.75 14.125C165.75 14.5117 165.607 14.8953 165.463 15.1992C165.305 15.5301 165.087 15.887 164.825 16.2507C164.299 16.9796 163.556 17.7956 162.649 18.561C160.851 20.0794 158.286 21.5 155.375 21.5C152.464 21.5 149.899 20.0794 148.101 18.561C147.194 17.7956 146.451 16.9796 145.925 16.2507C145.663 15.887 145.445 15.5301 145.287 15.1992C145.143 14.8953 145 14.5117 145 14.125C145 13.7383 145.143 13.3547 145.287 13.0508C145.445 12.7199 145.663 12.363 145.925 11.9993C146.451 11.2704 147.194 10.4544 148.101 9.68903ZM147.007 14.125C147.017 14.1589 147.041 14.2288 147.094 14.3403C147.186 14.5346 147.336 14.7868 147.548 15.0813C147.971 15.6689 148.601 16.3659 149.391 17.0328C150.986 18.379 153.108 19.5 155.375 19.5C157.642 19.5 159.764 18.379 161.359 17.0328C162.149 16.3659 162.779 15.6689 163.202 15.0813C163.414 14.7868 163.564 14.5346 163.656 14.3403C163.709 14.2289 163.733 14.1589 163.743 14.125C163.733 14.0911 163.709 14.0211 163.656 13.9097C163.564 13.7154 163.414 13.4632 163.202 13.1687C162.779 12.5811 162.149 11.8841 161.359 11.2172C161.024 10.9341 160.665 10.6609 160.286 10.406C160.425 10.8713 160.5 11.3645 160.5 11.875C160.5 14.7055 158.205 17 155.375 17C152.545 17 150.25 14.7055 150.25 11.875C150.25 11.3645 150.325 10.8713 150.464 10.406C150.085 10.6609 149.726 10.9341 149.391 11.2172C148.601 11.8841 147.971 12.5811 147.548 13.1687C147.336 13.4632 147.186 13.7154 147.094 13.9097C147.041 14.0211 147.017 14.0911 147.007 14.125ZM152.25 11.875C152.25 10.1491 153.649 8.75 155.375 8.75C157.101 8.75 158.5 10.1491 158.5 11.875C158.5 13.6009 157.101 15 155.375 15C153.649 15 152.25 13.6009 152.25 11.875Z" fill="#1E212C"/>
<path fill-rule="evenodd" clip-rule="evenodd" d="M200.218 18.959C200.747 19.115 201.303 18.8119 201.459 18.2821L202.186 15.8142C203.389 16.0615 204.611 16.0615 205.815 15.8143L206.541 18.282C206.697 18.8118 207.252 19.115 207.782 18.9591C208.312 18.8032 208.615 18.2473 208.459 17.7175L207.721 15.2074C208.709 14.7775 209.662 14.1765 210.564 13.413L212.261 15.2748C212.633 15.683 213.265 15.7123 213.674 15.3403C214.082 14.9683 214.111 14.3358 213.739 13.9276L211.996 12.0146C212.651 11.2825 213.271 10.4533 213.848 9.52974C214.141 9.0614 213.998 8.44445 213.53 8.15174C213.062 7.85903 212.445 8.00141 212.152 8.46974C211.457 9.58221 210.708 10.5192 209.928 11.2869C208.731 12.4644 207.463 13.2404 206.193 13.6493C204.743 14.1164 203.257 14.1164 201.807 13.6493C200.537 13.2404 199.269 12.4644 198.072 11.2869C197.292 10.5191 196.543 9.58218 195.848 8.46974C195.555 8.0014 194.938 7.85903 194.47 8.15174C194.002 8.44445 193.859 9.0614 194.152 9.52974C194.729 10.4534 195.349 11.2825 196.005 12.0146L194.261 13.9275C193.889 14.3357 193.918 14.9682 194.326 15.3402C194.735 15.7123 195.367 15.683 195.739 15.2748L197.436 13.4129C198.338 14.1764 199.291 14.7774 200.28 15.2074L199.541 17.7174C199.385 18.2472 199.688 18.8031 200.218 18.959Z" fill="#1E212C"/>
</svg>
