<svg width="456" height="24" viewBox="0 0 456 24" fill="none" xmlns="http://www.w3.org/2000/svg">
<path fill-rule="evenodd" clip-rule="evenodd" d="M3.1416 3.00802C3.04394 3.00066 2.90841 3 2.65424 3H1C0.447715 3 0 2.55229 0 2C0 1.44772 0.447715 1 1 1H2.65424C2.66367 1 2.6731 1 2.68252 1C2.89719 0.999976 3.10972 0.99995 3.29187 1.01367C3.49456 1.02895 3.73005 1.06482 3.97366 1.17349C4.31651 1.32642 4.60939 1.57276 4.81881 1.88434C4.96761 2.10573 5.0433 2.33159 5.09308 2.52866C5.13781 2.70576 5.1742 2.91516 5.21095 3.12665C5.21257 3.13594 5.21418 3.14523 5.2158 3.15452L5.45407 4.52459L18.4681 4.90982C18.978 4.9249 19.4188 4.93793 19.7817 4.9779C20.1654 5.02015 20.5457 5.0996 20.9106 5.29398C21.4634 5.58852 21.9102 6.04874 22.1883 6.61008C22.3718 6.98053 22.4399 7.36306 22.4708 7.74778C22.5 8.11176 22.5 8.55266 22.5 9.06286V9.13661C22.5 9.61608 22.5 10.032 22.4732 10.3769C22.4447 10.7426 22.3819 11.1059 22.2143 11.4619C21.9593 12.0037 21.5479 12.4568 21.0332 12.7628C20.695 12.9639 20.3395 13.0614 19.9782 13.125C19.6375 13.185 19.2235 13.225 18.7463 13.2712L9.01239 14.2132C8.5232 14.2605 8.09935 14.3015 7.74572 14.3078C7.37105 14.3144 6.99541 14.2853 6.61828 14.1467C6.05271 13.939 5.5628 13.5657 5.21236 13.0756C4.97869 12.7487 4.85092 12.3943 4.75782 12.0313C4.66995 11.6887 4.59701 11.2692 4.51282 10.785L3.24537 3.4972C3.20182 3.24679 3.17795 3.11338 3.15397 3.01842C3.15312 3.01505 3.15229 3.01185 3.1515 3.00881C3.14837 3.00855 3.14507 3.00828 3.1416 3.00802ZM5.80385 6.53582L6.47694 10.4061C6.56924 10.9368 6.62925 11.2776 6.69512 11.5344C6.75794 11.7794 6.80763 11.8681 6.83929 11.9123C6.9561 12.0757 7.11941 12.2001 7.30793 12.2694C7.35903 12.2882 7.45772 12.3125 7.71054 12.3081C7.97562 12.3034 8.32011 12.2708 8.85632 12.2189L18.5177 11.2839C19.0411 11.2333 19.3768 11.2001 19.6316 11.1553C19.8743 11.1126 19.9649 11.0712 20.0111 11.0438C20.1826 10.9417 20.3198 10.7907 20.4048 10.6101C20.4277 10.5615 20.4601 10.4673 20.4792 10.2216C20.4993 9.96369 20.5 9.62638 20.5 9.10051C20.5 8.54201 20.4993 8.18214 20.4772 7.90781C20.4562 7.64531 20.4204 7.5469 20.3961 7.49781C20.3034 7.3107 20.1545 7.15729 19.9702 7.05911C19.9218 7.03336 19.8245 6.99471 19.5628 6.96588C19.2892 6.93575 18.9295 6.92435 18.3713 6.90783L5.80385 6.53582Z" fill="#1E212C"/>
<path fill-rule="evenodd" clip-rule="evenodd" d="M8.5 17.5C7.94772 17.5 7.5 17.9477 7.5 18.5C7.5 19.0523 7.94772 19.5 8.5 19.5C9.05228 19.5 9.5 19.0523 9.5 18.5C9.5 17.9477 9.05228 17.5 8.5 17.5ZM5.5 18.5C5.5 16.8431 6.84315 15.5 8.5 15.5C10.1569 15.5 11.5 16.8431 11.5 18.5C11.5 20.1569 10.1569 21.5 8.5 21.5C6.84315 21.5 5.5 20.1569 5.5 18.5Z" fill="#1E212C"/>
<path fill-rule="evenodd" clip-rule="evenodd" d="M18 17.5C17.4477 17.5 17 17.9477 17 18.5C17 19.0523 17.4477 19.5 18 19.5C18.5523 19.5 19 19.0523 19 18.5C19 17.9477 18.5523 17.5 18 17.5ZM15 18.5C15 16.8431 16.3431 15.5 18 15.5C19.6569 15.5 21 16.8431 21 18.5C21 20.1569 19.6569 21.5 18 21.5C16.3431 21.5 15 20.1569 15 18.5Z" fill="#1E212C"/>
<path fill-rule="evenodd" clip-rule="evenodd" d="M54.5 9.5C55.0523 9.5 55.5 9.94771 55.5 10.5L55.5 21.75C55.5 22.3023 55.0523 22.75 54.5 22.75C53.9477 22.75 53.5 22.3023 53.5 21.75L53.5 10.5C53.5 9.94771 53.9477 9.5 54.5 9.5Z" fill="#1E212C"/>
<path fill-rule="evenodd" clip-rule="evenodd" d="M54.5 1.25C55.0523 1.25 55.5 1.69772 55.5 2.25V5.25C55.5 5.80228 55.0523 6.25 54.5 6.25C53.9477 6.25 53.5 5.80228 53.5 5.25V2.25C53.5 1.69772 53.9477 1.25 54.5 1.25Z" fill="#1E212C"/>
<path fill-rule="evenodd" clip-rule="evenodd" d="M49 7.25C49 5.59315 50.3431 4.25 52 4.25H57C58.6569 4.25 60 5.59315 60 7.25V8.5C60 10.1569 58.6569 11.5 57 11.5H52C50.3431 11.5 49 10.1569 49 8.5V7.25ZM52 6.25C51.4477 6.25 51 6.69772 51 7.25V8.5C51 9.05228 51.4477 9.5 52 9.5H57C57.5523 9.5 58 9.05228 58 8.5V7.25C58 6.69772 57.5523 6.25 57 6.25H52Z" fill="#1E212C"/>
<path fill-rule="evenodd" clip-rule="evenodd" d="M65.5 17.75C66.0523 17.75 66.5 18.1977 66.5 18.75V21.75C66.5 22.3023 66.0523 22.75 65.5 22.75C64.9477 22.75 64.5 22.3023 64.5 21.75V18.75C64.5 18.1977 64.9477 17.75 65.5 17.75Z" fill="#1E212C"/>
<path fill-rule="evenodd" clip-rule="evenodd" d="M65.5 1.25C66.0523 1.25 66.5 1.69772 66.5 2.25V13.5C66.5 14.0523 66.0523 14.5 65.5 14.5C64.9477 14.5 64.5 14.0523 64.5 13.5V2.25C64.5 1.69772 64.9477 1.25 65.5 1.25Z" fill="#1E212C"/>
<path fill-rule="evenodd" clip-rule="evenodd" d="M60 15.5C60 13.8431 61.3431 12.5 63 12.5H68C69.6569 12.5 71 13.8431 71 15.5V16.75C71 18.4069 69.6569 19.75 68 19.75H63C61.3431 19.75 60 18.4069 60 16.75V15.5ZM63 14.5C62.4477 14.5 62 14.9477 62 15.5V16.75C62 17.3023 62.4477 17.75 63 17.75H68C68.5523 17.75 69 17.3023 69 16.75V15.5C69 14.9477 68.5523 14.5 68 14.5H63Z" fill="#1E212C"/>
<path fill-rule="evenodd" clip-rule="evenodd" d="M113.5 9.5C114.052 9.5 114.5 9.94771 114.5 10.5V21.75C114.5 22.3023 114.052 22.75 113.5 22.75C112.948 22.75 112.5 22.3023 112.5 21.75L112.5 10.5C112.5 9.94771 112.948 9.5 113.5 9.5Z" fill="#1E212C"/>
<path fill-rule="evenodd" clip-rule="evenodd" d="M113.5 1.25C114.052 1.25 114.5 1.69772 114.5 2.25V5.25C114.5 5.80228 114.052 6.25 113.5 6.25C112.948 6.25 112.5 5.80228 112.5 5.25V2.25C112.5 1.69772 112.948 1.25 113.5 1.25Z" fill="#1E212C"/>
<path fill-rule="evenodd" clip-rule="evenodd" d="M108 7.25C108 5.59315 109.343 4.25 111 4.25H116C117.657 4.25 119 5.59315 119 7.25V8.5C119 10.1569 117.657 11.5 116 11.5H111C109.343 11.5 108 10.1569 108 8.5V7.25ZM111 6.25C110.448 6.25 110 6.69772 110 7.25V8.5C110 9.05228 110.448 9.5 111 9.5H116C116.552 9.5 117 9.05228 117 8.5V7.25C117 6.69772 116.552 6.25 116 6.25H111Z" fill="#1E212C"/>
<path fill-rule="evenodd" clip-rule="evenodd" d="M102.5 17.75C103.052 17.75 103.5 18.1977 103.5 18.75V21.75C103.5 22.3023 103.052 22.75 102.5 22.75C101.948 22.75 101.5 22.3023 101.5 21.75V18.75C101.5 18.1977 101.948 17.75 102.5 17.75Z" fill="#1E212C"/>
<path fill-rule="evenodd" clip-rule="evenodd" d="M102.5 1.25C103.052 1.25 103.5 1.69772 103.5 2.25V13.5C103.5 14.0523 103.052 14.5 102.5 14.5C101.948 14.5 101.5 14.0523 101.5 13.5V2.25C101.5 1.69772 101.948 1.25 102.5 1.25Z" fill="#1E212C"/>
<path fill-rule="evenodd" clip-rule="evenodd" d="M97 15.5C97 13.8431 98.3431 12.5 100 12.5H105C106.657 12.5 108 13.8431 108 15.5V16.75C108 18.4069 106.657 19.75 105 19.75H100C98.3431 19.75 97 18.4069 97 16.75V15.5ZM100 14.5C99.4477 14.5 99 14.9477 99 15.5V16.75C99 17.3023 99.4477 17.75 100 17.75H105C105.552 17.75 106 17.3023 106 16.75V15.5C106 14.9477 105.552 14.5 105 14.5H100Z" fill="#1E212C"/>
<g clip-path="url(#clip0_2491_3842)">
<path d="M166.834 16.1089C166.834 16.1089 166.834 16.1089 166.834 16.1089L158.192 10.7084C158.042 10.6142 157.868 10.5643 157.69 10.5643H156.948V10.1613C158.415 9.74709 159.494 8.39626 159.494 6.79834C159.494 4.87195 157.926 3.30469 156 3.30469C154.074 3.30469 152.506 4.87195 152.506 6.79834C152.506 7.32195 152.931 7.74642 153.454 7.74642C153.978 7.74642 154.403 7.32195 154.403 6.79834C154.403 5.91749 155.119 5.20085 156 5.20085C156.881 5.20085 157.597 5.91749 157.597 6.79834C157.597 7.67919 156.881 8.39583 156 8.39583C155.476 8.39583 155.052 8.8203 155.052 9.34391V10.5643H154.31C154.132 10.5643 153.958 10.6142 153.808 10.7084L145.166 16.1089C144.436 16.5654 144 17.3521 144 18.2135C144 19.5819 145.113 20.6952 146.482 20.6952H165.518C166.887 20.6952 168 19.5819 168 18.2135C168 17.3521 167.564 16.5654 166.834 16.1089ZM165.518 18.799H146.482C146.159 18.799 145.896 18.5363 145.896 18.2135C145.896 18.0102 145.999 17.8245 146.171 17.7168L154.582 12.4604H157.418L165.829 17.7168C166.001 17.8245 166.104 18.0102 166.104 18.2135C166.104 18.5363 165.841 18.799 165.518 18.799Z" fill="#1E212C"/>
</g>
<path fill-rule="evenodd" clip-rule="evenodd" d="M206.182 3.25C206.042 3.25 205.913 3.32416 205.842 3.44506L205.836 3.4556L201.25 10.8908V20.75H209.836C210.02 20.75 210.179 20.6221 210.219 20.4425L210.223 20.4269L212.773 10.4673C212.819 10.2259 212.634 10 212.387 10H208.5C207.849 10 207.19 9.78244 206.71 9.31423C206.206 8.822 205.972 8.11707 206.122 7.35761L206.841 3.71904C206.889 3.47611 206.703 3.25 206.456 3.25H206.182ZM199.25 20.75V11.6071H195.707C195.491 11.6071 195.315 11.7812 195.314 11.9971C195.314 11.9971 195.314 11.9971 195.314 11.9971L195.25 20.3542C195.248 20.5722 195.425 20.75 195.643 20.75H199.25ZM199.692 9.60714L204.122 2.42499C204.552 1.69735 205.335 1.25 206.182 1.25H206.456C207.963 1.25 209.095 2.62758 208.803 4.10668L208.084 7.74524C208.071 7.81 208.08 7.83942 208.082 7.84588C208.084 7.85308 208.089 7.86505 208.107 7.88296C208.149 7.92378 208.274 8 208.5 8H212.387C213.918 8 215.055 9.41787 214.723 10.9121L214.719 10.9277L212.168 20.894C211.918 21.9796 210.951 22.75 209.836 22.75H195.643C194.314 22.75 193.24 21.6676 193.25 20.339C193.25 20.339 193.25 20.339 193.25 20.339L193.314 11.9818C193.324 10.6676 194.392 9.60714 195.707 9.60714H199.692Z" fill="#1E212C"/>
<path fill-rule="evenodd" clip-rule="evenodd" d="M249.849 20.75C249.988 20.75 250.118 20.6758 250.188 20.5549L250.194 20.5444L254.781 13.1092L254.781 3.25L246.195 3.25C246.01 3.25 245.851 3.37789 245.811 3.5575L245.808 3.5731L243.258 13.5327C243.211 13.7741 243.396 14 243.644 14L247.531 14C248.182 14 248.841 14.2176 249.32 14.6858C249.825 15.178 250.058 15.8829 249.908 16.6424L249.19 20.281C249.142 20.5239 249.327 20.75 249.575 20.75L249.849 20.75ZM256.781 3.25L256.781 12.3929L260.324 12.3929C260.54 12.3929 260.715 12.2188 260.717 12.0029C260.717 12.0029 260.717 12.0029 260.717 12.0029L260.781 3.64578C260.782 3.42784 260.606 3.25 260.388 3.25L256.781 3.25ZM256.339 14.3929L251.908 21.575C251.478 22.3027 250.695 22.75 249.849 22.75L249.575 22.75C248.067 22.75 246.935 21.3724 247.227 19.8933L247.946 16.2548C247.959 16.19 247.951 16.1606 247.949 16.1541C247.947 16.1469 247.942 16.135 247.923 16.117C247.882 16.0762 247.757 16 247.531 16L243.644 16C242.113 16 240.976 14.5821 241.308 13.0879L241.311 13.0723L243.863 3.10592C244.113 2.02032 245.079 1.25 246.195 1.25L260.388 1.25C261.716 1.25 262.791 2.33243 262.78 3.66102C262.78 3.66104 262.78 3.66099 262.78 3.66102L262.717 12.0182C262.707 13.3324 261.638 14.3929 260.324 14.3929L256.339 14.3929Z" fill="#1E212C"/>
<path fill-rule="evenodd" clip-rule="evenodd" d="M292.25 3.25C291.698 3.25 291.25 3.69771 291.25 4.25L291.25 19.75C291.25 20.3023 291.698 20.75 292.25 20.75L307.75 20.75C308.302 20.75 308.75 20.3023 308.75 19.75V16.5793C308.437 16.6898 308.101 16.75 307.75 16.75L302 16.75C300.343 16.75 299 15.4068 299 13.75V10.25C299 8.59314 300.343 7.24999 302 7.25L307.75 7.25001C308.101 7.25001 308.437 7.31016 308.75 7.42071V4.25003C308.75 3.69775 308.302 3.25004 307.75 3.25003L292.25 3.25ZM310.75 4.25003C310.75 2.59318 309.407 1.25004 307.75 1.25003L292.25 1.25C290.593 1.25 289.25 2.59314 289.25 4.25L289.25 19.75C289.25 21.4069 290.593 22.75 292.25 22.75L307.75 22.75C309.407 22.75 310.75 21.4068 310.75 19.75V4.25003ZM308.75 10.25C308.75 9.69772 308.302 9.25001 307.75 9.25001L302 9.25C301.448 9.25 301 9.69771 301 10.25V13.75C301 14.3023 301.448 14.75 302 14.75L307.75 14.75C308.302 14.75 308.75 14.3023 308.75 13.75V10.25ZM303.75 12.25C303.888 12.25 304 12.1381 304 12C304 11.8619 303.888 11.75 303.75 11.75C303.612 11.75 303.5 11.8619 303.5 12C303.5 12.1381 303.612 12.25 303.75 12.25ZM302 12C302 11.0335 302.784 10.25 303.75 10.25C304.717 10.25 305.5 11.0335 305.5 12C305.5 12.9665 304.717 13.75 303.75 13.75C302.784 13.75 302 12.9665 302 12Z" fill="#1E212C"/>
<path fill-rule="evenodd" clip-rule="evenodd" d="M340.25 4.75C339.698 4.75 339.25 5.19771 339.25 5.75L339.25 7.25H356.75V5.75003C356.75 5.19774 356.302 4.75003 355.75 4.75003L340.25 4.75ZM356.75 9.25H339.25V11.75H356.75V9.25ZM356.75 13.75H339.25L339.25 18.25C339.25 18.8023 339.698 19.25 340.25 19.25L355.75 19.25C356.302 19.25 356.75 18.8023 356.75 18.25V13.75ZM337.25 5.75C337.25 4.09315 338.593 2.74999 340.25 2.75L355.75 2.75003C357.407 2.75003 358.75 4.09318 358.75 5.75003V18.25C358.75 19.9069 357.407 21.25 355.75 21.25L340.25 21.25C338.593 21.25 337.25 19.9069 337.25 18.25L337.25 5.75Z" fill="#1E212C"/>
<path fill-rule="evenodd" clip-rule="evenodd" d="M391.25 3.75C391.25 2.36929 392.369 1.25 393.75 1.25H398.25C399.631 1.25 400.75 2.36929 400.75 3.75V4.25H405.75C406.302 4.25 406.75 4.69772 406.75 5.25C406.75 5.80228 406.302 6.25 405.75 6.25H404.5V18.75C404.5 20.9591 402.709 22.75 400.5 22.75H391.5C389.291 22.75 387.5 20.9591 387.5 18.75V6.25H386.25C385.698 6.25 385.25 5.80228 385.25 5.25C385.25 4.69772 385.698 4.25 386.25 4.25H391.25V3.75ZM393.25 4.25H398.75V3.75C398.75 3.47386 398.526 3.25 398.25 3.25H393.75C393.474 3.25 393.25 3.47386 393.25 3.75V4.25ZM389.5 6.25V18.75C389.5 19.8546 390.395 20.75 391.5 20.75H400.5C401.605 20.75 402.5 19.8546 402.5 18.75V6.25H389.5ZM396 8C396.552 8 397 8.44772 397 9L397 18C397 18.5523 396.552 19 396 19C395.448 19 395 18.5523 395 18L395 9C395 8.44772 395.448 8 396 8Z" fill="#1E212C"/>
<path fill-rule="evenodd" clip-rule="evenodd" d="M438 3.25C436.895 3.25 436 4.14543 436 5.25L436 18.75C436 19.8546 436.895 20.75 438 20.75H450C451.105 20.75 452 19.8546 452 18.75V5.25001C452 4.14545 451.105 3.25002 450 3.25001L438 3.25ZM434 5.25C434 3.04086 435.791 1.25 438 1.25L450 1.25001C452.209 1.25002 454 3.04088 454 5.25001V18.75C454 20.9591 452.209 22.75 450 22.75H438C435.791 22.75 434 20.9591 434 18.75L434 5.25ZM448.5 4.99998C449.052 4.99998 449.5 5.44769 449.5 5.99998L449.5 7.49998C449.5 10.5375 447.038 13 444 13C440.962 13 438.5 10.5375 438.5 7.49998V5.99998C438.5 5.44769 438.948 4.99998 439.5 4.99998C440.052 4.99998 440.5 5.44769 440.5 5.99998V7.49998C440.5 9.43297 442.067 11 444 11C445.933 11 447.5 9.43297 447.5 7.49998L447.5 5.99998C447.5 5.44769 447.948 4.99998 448.5 4.99998Z" fill="#1E212C"/>
<defs>
<clipPath id="clip0_2491_3842">
<rect width="24" height="24" fill="white" transform="translate(144)"/>
</clipPath>
</defs>
</svg>
