<svg width="120" height="24" viewBox="0 0 120 24" fill="none" xmlns="http://www.w3.org/2000/svg">
<path d="M13 6.5C13 5.94772 12.5523 5.5 12 5.5C11.4477 5.5 11 5.94772 11 6.5V12C11 12.2652 11.1054 12.5196 11.2929 12.7071L14.2929 15.7071C14.6834 16.0976 15.3166 16.0976 15.7071 15.7071C16.0976 15.3166 16.0976 14.6834 15.7071 14.2929L13 11.5858V6.5Z" fill="#1E212C"/>
<path fill-rule="evenodd" clip-rule="evenodd" d="M12 1C5.92487 1 1 5.92487 1 12C1 18.0751 5.92487 23 12 23C18.0751 23 23 18.0751 23 12C23 5.92487 18.0751 1 12 1ZM3 12C3 7.02944 7.02944 3 12 3C16.9706 3 21 7.02944 21 12C21 16.9706 16.9706 21 12 21C7.02944 21 3 16.9706 3 12Z" fill="#1E212C"/>
<path d="M51.8579 0.5C52.4101 0.5 52.8579 0.947715 52.8579 1.5V3.63377C54.779 1.99236 57.2744 0.999992 60 0.999992C66.0751 0.999992 71 5.92486 71 12C71 18.0751 66.0751 23 60 23C53.9249 23 49 18.0751 49 12C49 11.4477 49.4477 11 50 11C50.5523 11 51 11.4477 51 12C51 16.9706 55.0294 21 60 21C64.9706 21 69 16.9706 69 12C69 7.02943 64.9706 2.99999 60 2.99999C57.8563 2.99999 55.8888 3.74851 54.3426 4.99999H56.3601C56.9123 4.99999 57.3601 5.44771 57.3601 5.99999C57.3601 6.55228 56.9123 6.99999 56.3601 6.99999H51.8579C51.3056 6.99999 50.8579 6.55228 50.8579 5.99999V1.5C50.8579 0.947715 51.3056 0.5 51.8579 0.5Z" fill="#1E212C"/>
<path fill-rule="evenodd" clip-rule="evenodd" d="M60.0001 5.6C60.4971 5.6 60.9001 6.00294 60.9001 6.5V11.6272L63.6365 14.3636C63.9879 14.7151 63.9879 15.2849 63.6365 15.6364C63.285 15.9879 62.7151 15.9879 62.3637 15.6364L59.3637 12.6364C59.1949 12.4676 59.1001 12.2387 59.1001 12V6.5C59.1001 6.00294 59.503 5.6 60.0001 5.6Z" fill="#1E212C"/>
<path fill-rule="evenodd" clip-rule="evenodd" d="M103.5 1.25C104.052 1.25 104.5 1.69772 104.5 2.25V2.75001L111.5 2.75003V2.25C111.5 1.69772 111.948 1.25 112.5 1.25C113.052 1.25 113.5 1.69771 113.5 2.25V2.75003L114.75 2.75003C116.959 2.75004 118.75 4.5409 118.75 6.75003V18.75C118.75 20.9591 116.959 22.75 114.75 22.75L101.25 22.75C99.0409 22.75 97.25 20.9591 97.25 18.75L97.25 9.00019L97.25 6.75001C97.25 4.54086 99.0409 2.75 101.25 2.75001L102.5 2.75001V2.25C102.5 1.69772 102.948 1.25 103.5 1.25ZM102.5 4.75001L101.25 4.75001C100.145 4.75 99.25 5.64543 99.25 6.75001V8H116.75V6.75003C116.75 5.64546 115.855 4.75003 114.75 4.75003L113.5 4.75003V5.25C113.5 5.80228 113.052 6.25 112.5 6.25C111.948 6.25 111.5 5.80229 111.5 5.25V4.75003L104.5 4.75001V5.25C104.5 5.80228 104.052 6.25 103.5 6.25C102.948 6.25 102.5 5.80228 102.5 5.25V4.75001ZM116.75 10H99.25L99.25 18.75C99.25 19.8546 100.145 20.75 101.25 20.75L114.75 20.75C115.855 20.75 116.75 19.8546 116.75 18.75V10Z" fill="#1E212C"/>
</svg>
