<svg width="504" height="24" viewBox="0 0 504 24" fill="none" xmlns="http://www.w3.org/2000/svg">
<path fill-rule="evenodd" clip-rule="evenodd" d="M8.95711 3.29289C8.56658 2.90237 7.93342 2.90237 7.54289 3.29289L2.29289 8.54289C1.90237 8.93342 1.90237 9.56658 2.29289 9.95711L7.54289 15.2071C7.93342 15.5976 8.56658 15.5976 8.95711 15.2071C9.34763 14.8166 9.34763 14.1834 8.95711 13.7929L5.41422 10.25H15.75C18.0972 10.25 20 12.1528 20 14.5C20 16.8472 18.0972 18.75 15.75 18.75H12.75C12.1977 18.75 11.75 19.1977 11.75 19.75C11.75 20.3023 12.1977 20.75 12.75 20.75H15.75C19.2018 20.75 22 17.9518 22 14.5C22 11.0482 19.2018 8.25 15.75 8.25H5.41422L8.95711 4.70711C9.34763 4.31658 9.34763 3.68342 8.95711 3.29289Z" fill="#1E212C"/>
<path fill-rule="evenodd" clip-rule="evenodd" d="M63.0429 3.29289C63.4334 2.90237 64.0666 2.90237 64.4571 3.29289L69.7071 8.54289C70.0976 8.93342 70.0976 9.56658 69.7071 9.95711L64.4571 15.2071C64.0666 15.5976 63.4334 15.5976 63.0429 15.2071C62.6524 14.8166 62.6524 14.1834 63.0429 13.7929L66.5858 10.25H56.25C53.9028 10.25 52 12.1528 52 14.5C52 16.8472 53.9028 18.75 56.25 18.75H59.25C59.8023 18.75 60.25 19.1977 60.25 19.75C60.25 20.3023 59.8023 20.75 59.25 20.75H56.25C52.7982 20.75 50 17.9518 50 14.5C50 11.0482 52.7982 8.25 56.25 8.25H66.5858L63.0429 4.70711C62.6524 4.31658 62.6524 3.68342 63.0429 3.29289Z" fill="#1E212C"/>
<path fill-rule="evenodd" clip-rule="evenodd" d="M102.793 2.79289C103.183 2.40237 103.817 2.40237 104.207 2.79289L107.707 6.29289C108.098 6.68342 108.098 7.31658 107.707 7.70711C107.317 8.09763 106.683 8.09763 106.293 7.70711L104.5 5.91421V19.5C104.5 20.0523 104.052 20.5 103.5 20.5C102.948 20.5 102.5 20.0523 102.5 19.5V5.91421L100.707 7.70711C100.317 8.09763 99.6834 8.09763 99.2929 7.70711C98.9024 7.31658 98.9024 6.68342 99.2929 6.29289L102.793 2.79289ZM112.5 3.5C113.052 3.5 113.5 3.94772 113.5 4.5V18.0858L115.293 16.2929C115.683 15.9024 116.317 15.9024 116.707 16.2929C117.098 16.6834 117.098 17.3166 116.707 17.7071L113.207 21.2071C112.817 21.5976 112.183 21.5976 111.793 21.2071L108.293 17.7071C107.902 17.3166 107.902 16.6834 108.293 16.2929C108.683 15.9024 109.317 15.9024 109.707 16.2929L111.5 18.0858V4.5C111.5 3.94772 111.948 3.5 112.5 3.5Z" fill="#1E212C"/>
<path fill-rule="evenodd" clip-rule="evenodd" d="M160.293 3.29289C160.683 2.90237 161.317 2.90237 161.707 3.29289L165.207 6.79289C165.598 7.18342 165.598 7.81658 165.207 8.20711L161.707 11.7071C161.317 12.0976 160.683 12.0976 160.293 11.7071C159.902 11.3166 159.902 10.6834 160.293 10.2929L162.086 8.5H148.5C147.948 8.5 147.5 8.05228 147.5 7.5C147.5 6.94772 147.948 6.5 148.5 6.5H162.086L160.293 4.70711C159.902 4.31658 159.902 3.68342 160.293 3.29289ZM151.707 12.2929C152.098 12.6834 152.098 13.3166 151.707 13.7071L149.914 15.5H163.5C164.052 15.5 164.5 15.9477 164.5 16.5C164.5 17.0523 164.052 17.5 163.5 17.5H149.914L151.707 19.2929C152.098 19.6834 152.098 20.3166 151.707 20.7071C151.317 21.0976 150.683 21.0976 150.293 20.7071L146.793 17.2071C146.402 16.8166 146.402 16.1834 146.793 15.7929L150.293 12.2929C150.683 11.9024 151.317 11.9024 151.707 12.2929Z" fill="#1E212C"/>
<path fill-rule="evenodd" clip-rule="evenodd" d="M194.1 2C194.652 2 195.1 2.44772 195.1 3V7.43632C196.758 4.20928 200.12 2 204 2C208.355 2 212.058 4.78413 213.431 8.66675C213.615 9.18747 213.342 9.75879 212.821 9.94284C212.3 10.1269 211.729 9.85396 211.545 9.33325C210.446 6.22472 207.482 4 204 4C201.04 4 198.454 5.60799 197.07 8H200.1C200.652 8 201.1 8.44772 201.1 9C201.1 9.55228 200.652 10 200.1 10H194.1C193.548 10 193.1 9.55228 193.1 9V3C193.1 2.44772 193.548 2 194.1 2Z" fill="#1E212C"/>
<path fill-rule="evenodd" clip-rule="evenodd" d="M195.177 14.0572C195.698 13.8731 196.269 14.146 196.453 14.6668C197.552 17.7753 200.516 20 203.998 20C206.958 20 209.544 18.392 210.928 16H207.898C207.346 16 206.898 15.5523 206.898 15C206.898 14.4477 207.346 14 207.898 14H213.898C214.45 14 214.898 14.4477 214.898 15V21C214.898 21.5523 214.45 22 213.898 22C213.346 22 212.898 21.5523 212.898 21V16.5637C211.24 19.7907 207.878 22 203.998 22C199.642 22 195.94 19.2159 194.567 15.3332C194.383 14.8125 194.656 14.2412 195.177 14.0572Z" fill="#1E212C"/>
<path fill-rule="evenodd" clip-rule="evenodd" d="M246.759 2.50752C247.292 2.65046 247.609 3.1988 247.466 3.73227L246.993 5.49839L247.5 5.2055C251.805 2.72022 257.309 4.19509 259.794 8.49973C262.28 12.8044 260.805 18.3087 256.5 20.794C252.195 23.2792 246.691 21.8044 244.206 17.4997C243.93 17.0214 244.094 16.4098 244.572 16.1337C245.05 15.8576 245.662 16.0214 245.938 16.4997C247.871 19.8478 252.152 20.9949 255.5 19.0619C258.848 17.1289 259.995 12.8478 258.062 9.49973C256.129 6.15168 251.848 5.00455 248.5 6.93755L247.993 7.23044L249.759 7.70367C250.292 7.84662 250.609 8.39495 250.466 8.92842C250.323 9.46188 249.775 9.77847 249.241 9.63553L245.143 8.53745C244.61 8.39451 244.293 7.84617 244.436 7.3127L245.534 3.21463C245.677 2.68116 246.225 2.36458 246.759 2.50752Z" fill="#1E212C"/>
<path fill-rule="evenodd" clip-rule="evenodd" d="M295.793 15.7929C296.183 15.4024 296.817 15.4024 297.207 15.7929L299 17.5858V6.41421L297.207 8.20711C296.817 8.59763 296.183 8.59763 295.793 8.20711C295.402 7.81658 295.402 7.18342 295.793 6.79289L299.293 3.29289C299.683 2.90237 300.317 2.90237 300.707 3.29289L304.207 6.79289C304.598 7.18342 304.598 7.81658 304.207 8.20711C303.817 8.59763 303.183 8.59763 302.793 8.20711L301 6.41421V17.5858L302.793 15.7929C303.183 15.4024 303.817 15.4024 304.207 15.7929C304.598 16.1834 304.598 16.8166 304.207 17.2071L300.707 20.7071C300.317 21.0976 299.683 21.0976 299.293 20.7071L295.793 17.2071C295.402 16.8166 295.402 16.1834 295.793 15.7929Z" fill="#1E212C"/>
<path fill-rule="evenodd" clip-rule="evenodd" d="M344.207 7.79289C344.598 8.18342 344.598 8.81658 344.207 9.20711L342.414 11H353.586L351.793 9.20711C351.402 8.81658 351.402 8.18342 351.793 7.79289C352.183 7.40237 352.817 7.40237 353.207 7.79289L356.707 11.2929C357.098 11.6834 357.098 12.3166 356.707 12.7071L353.207 16.2071C352.817 16.5976 352.183 16.5976 351.793 16.2071C351.402 15.8166 351.402 15.1834 351.793 14.7929L353.586 13H342.414L344.207 14.7929C344.598 15.1834 344.598 15.8166 344.207 16.2071C343.817 16.5976 343.183 16.5976 342.793 16.2071L339.293 12.7071C338.902 12.3166 338.902 11.6834 339.293 11.2929L342.793 7.79289C343.183 7.40237 343.817 7.40237 344.207 7.79289Z" fill="#1E212C"/>
<path fill-rule="evenodd" clip-rule="evenodd" d="M387 4C387 3.44772 387.448 3 388 3H393C393.552 3 394 3.44772 394 4C394 4.55228 393.552 5 393 5H390.414L396 10.5858L401.586 5H399C398.448 5 398 4.55228 398 4C398 3.44772 398.448 3 399 3H404C404.552 3 405 3.44772 405 4V9C405 9.55228 404.552 10 404 10C403.448 10 403 9.55228 403 9V6.41421L397.414 12L403 17.5858V15C403 14.4477 403.448 14 404 14C404.552 14 405 14.4477 405 15V20C405 20.5523 404.552 21 404 21H399C398.448 21 398 20.5523 398 20C398 19.4477 398.448 19 399 19H401.586L396 13.4142L390.414 19H393C393.552 19 394 19.4477 394 20C394 20.5523 393.552 21 393 21H388C387.448 21 387 20.5523 387 20V15C387 14.4477 387.448 14 388 14C388.552 14 389 14.4477 389 15V17.5858L394.586 12L389 6.41421V9C389 9.55228 388.552 10 388 10C387.448 10 387 9.55228 387 9V4Z" fill="#1E212C"/>
<path d="M444 1L450.928 10H437.072L444 1Z" fill="#1E212C"/>
<path d="M444 23L437.072 13.25L450.928 13.25L444 23Z" fill="#1E212C"/>
<path d="M503 10.9932L493.857 1V6.96214H491.913C485.886 6.96214 481 11.8324 481 17.8404V21L481.863 20.0569C484.799 16.851 488.952 15.0243 493.307 15.0243H493.857V20.9864L503 10.9932Z" fill="#1E212C"/>
</svg>
