<svg display='none' xmlns="http://www.w3.org/2000/svg">
  <!-- Arrows -->
  <symbol id="arrow-top" viewBox='0 0 24 24'>
    <path fill-rule="evenodd" clip-rule="evenodd" d="M6.79289 9.20711C6.40237 8.81658 6.40237 8.18342 6.79289 7.79289L11.2929 3.29289C11.6834 2.90237 12.3166 2.90237 12.7071 3.29289L17.2071 7.79289C17.5976 8.18342 17.5976 8.81658 17.2071 9.20711C16.8166 9.59763 16.1834 9.59763 15.7929 9.20711L13 6.41421V20C13 20.5523 12.5523 21 12 21C11.4477 21 11 20.5523 11 20V6.41421L8.20711 9.20711C7.81658 9.59763 7.18342 9.59763 6.79289 9.20711Z"/>
  </symbol>
  <symbol id="arrow-left" viewBox='0 0 24 24'>
    <path fill-rule="evenodd" clip-rule="evenodd" d="M62.7929 6.79289C63.1834 6.40237 63.8166 6.40237 64.2071 6.79289L68.7071 11.2929C69.0976 11.6834 69.0976 12.3166 68.7071 12.7071L64.2071 17.2071C63.8166 17.5976 63.1834 17.5976 62.7929 17.2071C62.4024 16.8166 62.4024 16.1834 62.7929 15.7929L65.5858 13H52C51.4477 13 51 12.5523 51 12C51 11.4477 51.4477 11 52 11H65.5858L62.7929 8.20711C62.4024 7.81658 62.4024 7.18342 62.7929 6.79289Z"/>
  </symbol>
  <symbol id="arrow-bottom" viewBox='0 0 24 24'>
    <path fill-rule="evenodd" clip-rule="evenodd" d="M113.207 14.7929C113.598 15.1834 113.598 15.8166 113.207 16.2071L108.707 20.7071C108.317 21.0976 107.683 21.0976 107.293 20.7071L102.793 16.2071C102.402 15.8166 102.402 15.1834 102.793 14.7929C103.183 14.4024 103.817 14.4024 104.207 14.7929L107 17.5858V4C107 3.44772 107.448 3 108 3C108.552 3 109 3.44772 109 4V17.5858L111.793 14.7929C112.183 14.4024 112.817 14.4024 113.207 14.7929Z"/>
  </symbol>
  <symbol id="arrow-right" viewBox='0 0 24 24'>
    <path fill-rule="evenodd" clip-rule="evenodd" d="M153.207 17.2071C152.817 17.5976 152.183 17.5976 151.793 17.2071L147.293 12.7071C146.902 12.3166 146.902 11.6834 147.293 11.2929L151.793 6.79289C152.183 6.40237 152.817 6.40237 153.207 6.79289C153.598 7.18342 153.598 7.81658 153.207 8.20711L150.414 11L164 11C164.552 11 165 11.4477 165 12C165 12.5523 164.552 13 164 13L150.414 13L153.207 15.7929C153.598 16.1834 153.598 16.8166 153.207 17.2071Z"/>
  </symbol>
  <symbol id="arrow-top-left" viewBox='0 0 24 24'>
    <path fill-rule="evenodd" clip-rule="evenodd" d="M202 6C202 5.44772 202.448 5 203 5H210C210.552 5 211 5.44772 211 6V13C211 13.5523 210.552 14 210 14C209.448 14 209 13.5523 209 13V8.41421L198.707 18.7071C198.317 19.0976 197.683 19.0976 197.293 18.7071C196.902 18.3166 196.902 17.6834 197.293 17.2929L207.586 7H203C202.448 7 202 6.55228 202 6Z"/>
  </symbol>
  <symbol id="arrow-bottom-left" viewBox='0 0 24 24'>
    <path fill-rule="evenodd" clip-rule="evenodd" d="M245.293 5.29289C245.683 4.90237 246.317 4.90237 246.707 5.29289L257 15.5858V11C257 10.4477 257.448 10 258 10C258.552 10 259 10.4477 259 11V18C259 18.5523 258.552 19 258 19H251C250.448 19 250 18.5523 250 18C250 17.4477 250.448 17 251 17H255.586L245.293 6.70711C244.902 6.31658 244.902 5.68342 245.293 5.29289Z"/>
  </symbol>
  <symbol id="arrow-bottom-right" viewBox='0 0 24 24'>
    <path fill-rule="evenodd" clip-rule="evenodd" d="M306.707 5.29289C307.098 5.68342 307.098 6.31658 306.707 6.70711L296.414 17H301C301.552 17 302 17.4477 302 18C302 18.5523 301.552 19 301 19H294C293.448 19 293 18.5523 293 18V11C293 10.4477 293.448 10 294 10C294.552 10 295 10.4477 295 11V15.5858L305.293 5.29289C305.683 4.90237 306.317 4.90237 306.707 5.29289Z"/>
  </symbol>
  <symbol id="arrow-right-top" viewBox='0 0 24 24'>
    <path fill-rule="evenodd" clip-rule="evenodd" d="M341 6C341 5.44772 341.448 5 342 5H349C349.552 5 350 5.44772 350 6C350 6.55228 349.552 7 349 7H344.414L354.707 17.2929C355.098 17.6834 355.098 18.3166 354.707 18.7071C354.317 19.0976 353.683 19.0976 353.293 18.7071L343 8.41421V13C343 13.5523 342.552 14 342 14C341.448 14 341 13.5523 341 13V6Z"/>
  </symbol>


</svg>