<svg display='none' xmlns="http://www.w3.org/2000/svg">
<!-- width="840" height="24" viewBox="0 0 840 24" fill="none" xmlns="http://www.w3.org/2000/svg" -->
  <!-- Arrows -->
  <symbol id="grid-1" viewBox='0 0 24 24'>
<path fill-rule="evenodd" clip-rule="evenodd" d="M1 3.5C1 2.11929 2.11929 1 3.5 1H8.5C9.88071 1 11 2.11929 11 3.5V8.5C11 9.88071 9.88071 11 8.5 11H3.5C2.11929 11 1 9.88071 1 8.5V3.5ZM3.5 3C3.22386 3 3 3.22386 3 3.5V8.5C3 8.77614 3.22386 9 3.5 9H8.5C8.77614 9 9 8.77614 9 8.5V3.5C9 3.22386 8.77614 3 8.5 3H3.5Z" fill="#1E212C"/>
<path fill-rule="evenodd" clip-rule="evenodd" d="M1 15.5C1 14.1193 2.11929 13 3.5 13H8.5C9.88071 13 11 14.1193 11 15.5V20.5C11 21.8807 9.88071 23 8.5 23H3.5C2.11929 23 1 21.8807 1 20.5V15.5ZM3.5 15C3.22386 15 3 15.2239 3 15.5V20.5C3 20.7761 3.22386 21 3.5 21H8.5C8.77614 21 9 20.7761 9 20.5V15.5C9 15.2239 8.77614 15 8.5 15H3.5Z" fill="#1E212C"/>
<path fill-rule="evenodd" clip-rule="evenodd" d="M13 3.5C13 2.11929 14.1193 1 15.5 1H20.5C21.8807 1 23 2.11929 23 3.5V8.5C23 9.88071 21.8807 11 20.5 11H15.5C14.1193 11 13 9.88071 13 8.5V3.5ZM15.5 3C15.2239 3 15 3.22386 15 3.5V8.5C15 8.77614 15.2239 9 15.5 9H20.5C20.7761 9 21 8.77614 21 8.5V3.5C21 3.22386 20.7761 3 20.5 3H15.5Z" fill="#1E212C"/>
<path fill-rule="evenodd" clip-rule="evenodd" d="M13 15.5C13 14.1193 14.1193 13 15.5 13H20.5C21.8807 13 23 14.1193 23 15.5V20.5C23 21.8807 21.8807 23 20.5 23H15.5C14.1193 23 13 21.8807 13 20.5V15.5ZM15.5 15C15.2239 15 15 15.2239 15 15.5V20.5C15 20.7761 15.2239 21 15.5 21H20.5C20.7761 21 21 20.7761 21 20.5V15.5C21 15.2239 20.7761 15 20.5 15H15.5Z" fill="#1E212C"/>
  </symbol>
  <symbol id="grid-2" viewBox='0 0 24 24'>
<path fill-rule="evenodd" clip-rule="evenodd" d="M0 2.5C0 1.11929 1.11929 0 2.5 0H7.5C8.88071 0 10 1.11929 10 2.5V7.5C10 8.88071 8.88071 10 7.5 10H2.5C1.11929 10 0 8.88071 0 7.5V2.5ZM2.5 2C2.22386 2 2 2.22386 2 2.5V7.5C2 7.77614 2.22386 8 2.5 8H7.5C7.77614 8 8 7.77614 8 7.5V2.5C8 2.22386 7.77614 2 7.5 2H2.5Z" fill="#1E212C"/>
<path fill-rule="evenodd" clip-rule="evenodd" d="M0 14.5C0 13.1193 1.11929 12 2.5 12H7.5C8.88071 12 10 13.1193 10 14.5V19.5C10 20.8807 8.88071 22 7.5 22H2.5C1.11929 22 0 20.8807 0 19.5V14.5ZM2.5 14C2.22386 14 2 14.2239 2 14.5V19.5C2 19.7761 2.22386 20 2.5 20H7.5C7.77614 20 8 19.7761 8 19.5V14.5C8 14.2239 7.77614 14 7.5 14H2.5Z" fill="#1E212C"/>
<path fill-rule="evenodd" clip-rule="evenodd" d="M12 2.5C12 1.11929 13.1193 0 14.5 0H19.5C20.8807 0 22 1.11929 22 2.5V7.5C22 8.88071 20.8807 10 19.5 10H14.5C13.1193 10 12 8.88071 12 7.5V2.5ZM14.5 2C14.2239 2 14 2.22386 14 2.5V7.5C14 7.77614 14.2239 8 14.5 8H19.5C19.7761 8 20 7.77614 20 7.5V2.5C20 2.22386 19.7761 2 19.5 2H14.5Z" fill="#1E212C"/>
<path fill-rule="evenodd" clip-rule="evenodd" d="M12 14.5C12 13.1193 13.1193 12 14.5 12H19.5C20.8807 12 22 13.1193 22 14.5V19.5C22 20.8807 20.8807 22 19.5 22H14.5C13.1193 22 12 20.8807 12 19.5V14.5ZM14.5 14C14.2239 14 14 14.2239 14 14.5V19.5C14 19.7761 14.2239 20 14.5 20H19.5C19.7761 20 20 19.7761 20 19.5V14.5C20 14.2239 19.7761 14 19.5 14H14.5Z" fill="#1E212C"/>
  </symbol>
  <symbol id="arrow-top" viewBox='0 0 24 24'>
    <path fill-rule="evenodd" clip-rule="evenodd" d="M6.79289 9.20711C6.40237 8.81658 6.40237 8.18342 6.79289 7.79289L11.2929 3.29289C11.6834 2.90237 12.3166 2.90237 12.7071 3.29289L17.2071 7.79289C17.5976 8.18342 17.5976 8.81658 17.2071 9.20711C16.8166 9.59763 16.1834 9.59763 15.7929 9.20711L13 6.41421V20C13 20.5523 12.5523 21 12 21C11.4477 21 11 20.5523 11 20V6.41421L8.20711 9.20711C7.81658 9.59763 7.18342 9.59763 6.79289 9.20711Z"/>
  </symbol>
  <symbol id="arrow-left" viewBox='0 0 24 24'>
    <path fill-rule="evenodd" clip-rule="evenodd" d="M6.79289 9.20711C6.40237 8.81658 6.40237 8.18342 6.79289 7.79289L11.2929 3.29289C11.6834 2.90237 12.3166 2.90237 12.7071 3.29289L17.2071 7.79289C17.5976 8.18342 17.5976 8.81658 17.2071 9.20711C16.8166 9.59763 16.1834 9.59763 15.7929 9.20711L13 6.41421V20C13 20.5523 12.5523 21 12 21C11.4477 21 11 20.5523 11 20V6.41421L8.20711 9.20711C7.81658 9.59763 7.18342 9.59763 6.79289 9.20711Z"/>
    <!-- <path fill-rule="evenodd" clip-rule="evenodd" d="M62.7929 6.79289C63.1834 6.40237 63.8166 6.40237 64.2071 6.79289L68.7071 11.2929C69.0976 11.6834 69.0976 12.3166 68.7071 12.7071L64.2071 17.2071C63.8166 17.5976 63.1834 17.5976 62.7929 17.2071C62.4024 16.8166 62.4024 16.1834 62.7929 15.7929L65.5858 13H52C51.4477 13 51 12.5523 51 12C51 11.4477 51.4477 11 52 11H65.5858L62.7929 8.20711C62.4024 7.81658 62.4024 7.18342 62.7929 6.79289Z"/> -->
  </symbol>
  <symbol id="arrow-bottom" viewBox='0 0 24 24'>
    <path fill-rule="evenodd" clip-rule="evenodd" d="M113.207 14.7929C113.598 15.1834 113.598 15.8166 113.207 16.2071L108.707 20.7071C108.317 21.0976 107.683 21.0976 107.293 20.7071L102.793 16.2071C102.402 15.8166 102.402 15.1834 102.793 14.7929C103.183 14.4024 103.817 14.4024 104.207 14.7929L107 17.5858V4C107 3.44772 107.448 3 108 3C108.552 3 109 3.44772 109 4V17.5858L111.793 14.7929C112.183 14.4024 112.817 14.4024 113.207 14.7929Z"/>
  </symbol>
  <symbol id="arrow-right" viewBox='0 0 24 24'>
    <path fill-rule="evenodd" clip-rule="evenodd" d="M153.207 17.2071C152.817 17.5976 152.183 17.5976 151.793 17.2071L147.293 12.7071C146.902 12.3166 146.902 11.6834 147.293 11.2929L151.793 6.79289C152.183 6.40237 152.817 6.40237 153.207 6.79289C153.598 7.18342 153.598 7.81658 153.207 8.20711L150.414 11L164 11C164.552 11 165 11.4477 165 12C165 12.5523 164.552 13 164 13L150.414 13L153.207 15.7929C153.598 16.1834 153.598 16.8166 153.207 17.2071Z"/>
  </symbol>
  <symbol id="arrow-top-left" viewBox='0 0 24 24'>
    <path fill-rule="evenodd" clip-rule="evenodd" d="M202 6C202 5.44772 202.448 5 203 5H210C210.552 5 211 5.44772 211 6V13C211 13.5523 210.552 14 210 14C209.448 14 209 13.5523 209 13V8.41421L198.707 18.7071C198.317 19.0976 197.683 19.0976 197.293 18.7071C196.902 18.3166 196.902 17.6834 197.293 17.2929L207.586 7H203C202.448 7 202 6.55228 202 6Z"/>
  </symbol>
  <symbol id="arrow-bottom-left" viewBox='0 0 24 24'>
    <path fill-rule="evenodd" clip-rule="evenodd" d="M245.293 5.29289C245.683 4.90237 246.317 4.90237 246.707 5.29289L257 15.5858V11C257 10.4477 257.448 10 258 10C258.552 10 259 10.4477 259 11V18C259 18.5523 258.552 19 258 19H251C250.448 19 250 18.5523 250 18C250 17.4477 250.448 17 251 17H255.586L245.293 6.70711C244.902 6.31658 244.902 5.68342 245.293 5.29289Z"/>
  </symbol>
  <symbol id="arrow-bottom-right" viewBox='0 0 24 24'>
    <path fill-rule="evenodd" clip-rule="evenodd" d="M306.707 5.29289C307.098 5.68342 307.098 6.31658 306.707 6.70711L296.414 17H301C301.552 17 302 17.4477 302 18C302 18.5523 301.552 19 301 19H294C293.448 19 293 18.5523 293 18V11C293 10.4477 293.448 10 294 10C294.552 10 295 10.4477 295 11V15.5858L305.293 5.29289C305.683 4.90237 306.317 4.90237 306.707 5.29289Z"/>
  </symbol>
  <symbol id="arrow-right-top" viewBox='0 0 24 24'>
    <path fill-rule="evenodd" clip-rule="evenodd" d="M341 6C341 5.44772 341.448 5 342 5H349C349.552 5 350 5.44772 350 6C350 6.55228 349.552 7 349 7H344.414L354.707 17.2929C355.098 17.6834 355.098 18.3166 354.707 18.7071C354.317 19.0976 353.683 19.0976 353.293 18.7071L343 8.41421V13C343 13.5523 342.552 14 342 14C341.448 14 341 13.5523 341 13V6Z"/>
  </symbol>

  <!-- grid -->
  <symbol id="grid-col" viewBox='0 0 24 24'>
    <path fill-rule="evenodd" clip-rule="evenodd" d="M1 3.5C1 2.11929 2.11929 1 3.5 1H20.5C21.8807 1 23 2.11929 23 3.5V8.5C23 9.88071 21.8807 11 20.5 11H3.5C2.11929 11 1 9.88071 1 8.5V3.5ZM3.5 3C3.22386 3 3 3.22386 3 3.5V8.5C3 8.77614 3.22386 9 3.5 9H20.5C20.7761 9 21 8.77614 21 8.5V3.5C21 3.22386 20.7761 3 20.5 3H3.5Z"/>
    <path fill-rule="evenodd" clip-rule="evenodd" d="M1 15.5C1 14.1193 2.11929 13 3.5 13H20.5C21.8807 13 23 14.1193 23 15.5V20.5C23 21.8807 21.8807 23 20.5 23H3.5C2.11929 23 1 21.8807 1 20.5V15.5ZM3.5 15C3.22386 15 3 15.2239 3 15.5V20.5C3 20.7761 3.22386 21 3.5 21H20.5C20.7761 21 21 20.7761 21 20.5V15.5C21 15.2239 20.7761 15 20.5 15H3.5Z"/>
  </symbol>
  <symbol id="grid-cells" viewBox='0 0 24 24'>
    <path fill-rule="evenodd" clip-rule="evenodd" d="M49 3.5C49 2.11929 50.1193 1 51.5 1H56.5C57.8807 1 59 2.11929 59 3.5V8.5C59 9.88071 57.8807 11 56.5 11H51.5C50.1193 11 49 9.88071 49 8.5V3.5ZM51.5 3C51.2239 3 51 3.22386 51 3.5V8.5C51 8.77614 51.2239 9 51.5 9H56.5C56.7761 9 57 8.77614 57 8.5V3.5C57 3.22386 56.7761 3 56.5 3H51.5Z"/>
    <path fill-rule="evenodd" clip-rule="evenodd" d="M49 15.5C49 14.1193 50.1193 13 51.5 13H56.5C57.8807 13 59 14.1193 59 15.5V20.5C59 21.8807 57.8807 23 56.5 23H51.5C50.1193 23 49 21.8807 49 20.5V15.5ZM51.5 15C51.2239 15 51 15.2239 51 15.5V20.5C51 20.7761 51.2239 21 51.5 21H56.5C56.7761 21 57 20.7761 57 20.5V15.5C57 15.2239 56.7761 15 56.5 15H51.5Z"/>
    <path fill-rule="evenodd" clip-rule="evenodd" d="M61 3.5C61 2.11929 62.1193 1 63.5 1H68.5C69.8807 1 71 2.11929 71 3.5V8.5C71 9.88071 69.8807 11 68.5 11H63.5C62.1193 11 61 9.88071 61 8.5V3.5ZM63.5 3C63.2239 3 63 3.22386 63 3.5V8.5C63 8.77614 63.2239 9 63.5 9H68.5C68.7761 9 69 8.77614 69 8.5V3.5C69 3.22386 68.7761 3 68.5 3H63.5Z"/>
    <path fill-rule="evenodd" clip-rule="evenodd" d="M61 15.5C61 14.1193 62.1193 13 63.5 13H68.5C69.8807 13 71 14.1193 71 15.5V20.5C71 21.8807 69.8807 23 68.5 23H63.5C62.1193 23 61 21.8807 61 20.5V15.5ZM63.5 15C63.2239 15 63 15.2239 63 15.5V20.5C63 20.7761 63.2239 21 63.5 21H68.5C68.7761 21 69 20.7761 69 20.5V15.5C69 15.2239 68.7761 15 68.5 15H63.5Z"/>
  </symbol>

  <!-- account -->
  <symbol id="home" viewBox='0 0 24 24'>
    <path fill-rule="evenodd" clip-rule="evenodd" d="M156.784 4.17165C156.271 4.03263 155.729 4.03263 155.216 4.17165C154.681 4.31638 154.163 4.69556 152.685 5.84535L150.085 7.86757C149.133 8.60758 148.814 8.86704 148.588 9.17233C148.371 9.46571 148.209 9.79622 148.111 10.1476C148.009 10.5133 148 10.9247 148 12.1301V18.7499C148 19.5205 148.011 19.6841 148.043 19.7902C148.14 20.1098 148.39 20.3599 148.71 20.4569C148.816 20.4891 148.979 20.4999 149.75 20.4999H150.375C150.503 20.4999 150.531 20.4996 150.549 20.4987C151.063 20.4735 151.474 20.0627 151.499 19.549C151.5 19.5307 151.5 19.5029 151.5 19.3749V16.4999C151.5 14.0147 153.515 11.9999 156 11.9999C158.485 11.9999 160.5 14.0147 160.5 16.4999V19.3749C160.5 19.5029 160.5 19.5307 160.501 19.549C160.526 20.0627 160.937 20.4735 161.451 20.4987C161.469 20.4996 161.497 20.4999 161.625 20.4999H162.25C163.02 20.4999 163.184 20.4891 163.29 20.4569C163.61 20.3599 163.86 20.1098 163.957 19.7902C163.989 19.6841 164 19.5205 164 18.7499V12.1301C164 10.9247 163.991 10.5133 163.889 10.1476C163.791 9.79622 163.629 9.46571 163.412 9.17233C163.186 8.86704 162.867 8.60758 161.915 7.86757L159.315 5.84535C157.837 4.69556 157.319 4.31638 156.784 4.17165ZM154.693 2.24116C155.549 2.00946 156.451 2.00946 157.307 2.24116C158.28 2.50468 159.134 3.16957 160.373 4.1342C160.429 4.17774 160.486 4.22189 160.543 4.26664L163.143 6.28887C163.179 6.31682 163.215 6.34438 163.25 6.37158C164.054 6.99674 164.61 7.42922 165.02 7.98303C165.382 8.472 165.651 9.02285 165.815 9.60852C166.001 10.2719 166 10.9766 166 11.9953C166 12.0396 166 12.0845 166 12.1301V18.7499C166 18.7923 166 18.8342 166 18.8758C166.001 19.447 166.001 19.9405 165.871 20.3708C165.58 21.3296 164.83 22.0799 163.871 22.3708C163.44 22.5013 162.947 22.5007 162.376 22.5C162.334 22.5 162.292 22.4999 162.25 22.4999L161.604 22.4999C161.509 22.5 161.427 22.5 161.353 22.4963C159.812 22.4206 158.579 21.1883 158.504 19.6471C158.5 19.5728 158.5 19.491 158.5 19.3959L158.5 16.4999C158.5 15.1192 157.381 13.9999 156 13.9999C154.619 13.9999 153.5 15.1192 153.5 16.4999L153.5 19.3959C153.5 19.4911 153.5 19.5728 153.496 19.6471C153.421 21.1883 152.188 22.4206 150.647 22.4963C150.573 22.5 150.491 22.5 150.396 22.4999L149.75 22.4999C149.708 22.4999 149.666 22.5 149.624 22.5C149.053 22.5007 148.559 22.5013 148.129 22.3708C147.17 22.0799 146.42 21.3296 146.129 20.3708C145.999 19.9404 145.999 19.447 146 18.8758C146 18.8342 146 18.7923 146 18.7499V12.1301C146 12.0845 146 12.0396 146 11.9953C146 10.9766 145.999 10.2719 146.185 9.60852C146.349 9.02285 146.618 8.472 146.98 7.98303C147.39 7.42921 147.946 6.99673 148.75 6.37157C148.785 6.34438 148.821 6.31682 148.857 6.28887L151.457 4.26664C151.514 4.22189 151.571 4.17774 151.627 4.1342C152.866 3.16957 153.72 2.50468 154.693 2.24116Z"/>
  </symbol>
  <symbol id="account" viewBox='0 0 24 24'>
    <path fill-rule="evenodd" clip-rule="evenodd" d="M204 3.25C202.067 3.25 200.5 4.817 200.5 6.75C200.5 8.683 202.067 10.25 204 10.25C205.933 10.25 207.5 8.683 207.5 6.75C207.5 4.817 205.933 3.25 204 3.25ZM198.5 6.75C198.5 3.71243 200.963 1.25 204 1.25C207.038 1.25 209.5 3.71243 209.5 6.75C209.5 9.78757 207.038 12.25 204 12.25C200.963 12.25 198.5 9.78757 198.5 6.75Z"/>
    <path fill-rule="evenodd" clip-rule="evenodd" d="M198.104 15.25C197.411 15.25 196.869 15.5876 196.649 16.0726C196.345 16.7439 196.069 17.5432 196.004 18.3012C195.975 18.64 196.116 18.8897 196.311 19.0107C197.34 19.65 199.725 20.75 204 20.75C208.276 20.75 210.661 19.65 211.69 19.0107C211.884 18.8897 212.026 18.64 211.997 18.3012C211.932 17.5432 211.656 16.7439 211.351 16.0726C211.131 15.5876 210.589 15.25 209.896 15.25H198.104ZM194.828 15.2466C195.436 13.9061 196.793 13.25 198.104 13.25H209.896C211.207 13.25 212.565 13.9061 213.173 15.2466C213.522 16.0165 213.897 17.0515 213.989 18.1301C214.074 19.1124 213.665 20.1379 212.745 20.7096C211.392 21.5504 208.64 22.75 204 22.75C199.361 22.75 196.609 21.5504 195.255 20.7096C194.335 20.1379 193.927 19.1124 194.011 18.1301C194.104 17.0515 194.478 16.0165 194.828 15.2466Z"/>
  </symbol>
  <symbol id="account-enter" viewBox='0 0 24 24'>
    <path d="M247.5 20.75C246.948 20.75 246.5 21.1977 246.5 21.75C246.5 22.3023 246.948 22.75 247.5 22.75H257.75C260.511 22.75 262.75 20.5114 262.75 17.75V6.25C262.75 3.48857 260.511 1.25 257.75 1.25H247.5C246.948 1.25 246.5 1.69771 246.5 2.25C246.5 2.80228 246.948 3.25 247.5 3.25L257.75 3.25C259.407 3.25 260.75 4.59314 260.75 6.25V17.75C260.75 19.4069 259.407 20.75 257.75 20.75H247.5Z"/>
    <path d="M258.25 12C258.25 12.2652 258.145 12.5196 257.957 12.7071L253.457 17.2071C253.067 17.5976 252.433 17.5976 252.043 17.2071C251.652 16.8166 251.652 16.1834 252.043 15.7929L254.836 13L242.25 13C241.698 13 241.25 12.5523 241.25 12C241.25 11.4477 241.698 11 242.25 11L254.836 11L252.043 8.20711C251.652 7.81658 251.652 7.18342 252.043 6.79289C252.433 6.40237 253.067 6.40237 253.457 6.79289L257.957 11.2929C258.145 11.4804 258.25 11.7348 258.25 12Z"/>
  </symbol>
  <symbol id="account-exit" viewBox='0 0 24 24'>
    <path d="M304.5 20.75C305.052 20.75 305.5 21.1977 305.5 21.75C305.5 22.3023 305.052 22.75 304.5 22.75H294.25C291.489 22.75 289.25 20.5114 289.25 17.75V6.25C289.25 3.48857 291.489 1.25 294.25 1.25H304.5C305.052 1.25 305.5 1.69771 305.5 2.25C305.5 2.80228 305.052 3.25 304.5 3.25L294.25 3.25C292.593 3.25 291.25 4.59314 291.25 6.25V17.75C291.25 19.4069 292.593 20.75 294.25 20.75H304.5Z"/>
    <path d="M293.75 12C293.75 12.2652 293.855 12.5196 294.043 12.7071L298.543 17.2071C298.933 17.5976 299.567 17.5976 299.957 17.2071C300.348 16.8166 300.348 16.1834 299.957 15.7929L297.164 13L309.75 13C310.302 13 310.75 12.5523 310.75 12C310.75 11.4477 310.302 11 309.75 11L297.164 11L299.957 8.20711C300.348 7.81658 300.348 7.18342 299.957 6.79289C299.567 6.40237 298.933 6.40237 298.543 6.79289L294.043 11.2929C293.855 11.4804 293.75 11.7348 293.75 12Z"/>
  </symbol>

  <!--  -->
  <symbol id="search" viewBox='0 0 24 24'>
    <path fill-rule="evenodd" clip-rule="evenodd" d="M346.875 3.25C342.664 3.25 339.25 6.66383 339.25 10.875C339.25 15.0862 342.664 18.5 346.875 18.5C348.979 18.5 350.882 17.6492 352.263 16.2706C353.646 14.8893 354.5 12.9828 354.5 10.875C354.5 6.66383 351.086 3.25 346.875 3.25ZM337.25 10.875C337.25 5.55926 341.559 1.25 346.875 1.25C352.191 1.25 356.5 5.55926 356.5 10.875C356.5 13.1742 355.693 15.2863 354.348 16.9413L358.456 21.0422C358.847 21.4324 358.848 22.0656 358.458 22.4565C358.068 22.8473 357.434 22.8479 357.044 22.4578L352.933 18.3547C351.279 19.6955 349.17 20.5 346.875 20.5C341.559 20.5 337.25 16.1907 337.25 10.875Z"/>  
  </symbol>
  <symbol id="tick" viewBox='0 0 24 24'>
    <path fill-rule="evenodd" clip-rule="evenodd" d="M405.707 5.29289C406.098 5.68342 406.098 6.31658 405.707 6.70711L393.707 18.7071C393.317 19.0976 392.683 19.0976 392.293 18.7071L386.293 12.7071C385.902 12.3166 385.902 11.6834 386.293 11.2929C386.683 10.9024 387.317 10.9024 387.707 11.2929L393 16.5858L404.293 5.29289C404.683 4.90237 405.317 4.90237 405.707 5.29289Z"/>
  </symbol>
  <symbol id="tick-circled" viewBox='0 0 24 24'>
    <path d="M444 23C450.065 23 455 18.0655 455 12C455 10.9531 454.854 9.92139 454.564 8.93333C454.422 8.44747 453.915 8.1684 453.427 8.31095C452.941 8.45306 452.663 8.9622 452.805 9.44806C453.045 10.2689 453.167 11.1279 453.167 12C453.167 17.0544 449.054 21.1667 444 21.1667C438.946 21.1667 434.833 17.0544 434.833 12C434.833 6.94558 438.946 2.83333 444 2.83333C445.837 2.83333 447.604 3.37044 449.111 4.38625C449.53 4.66935 450.1 4.55813 450.383 4.13873C450.666 3.71889 450.556 3.14911 450.136 2.86623C448.325 1.64543 446.204 1 444 1C437.935 1 433 5.93447 433 12C433 18.0655 437.935 23 444 23Z"/>
    <path d="M454.293 2.29279L444 12.5853L440.707 9.29279C440.316 8.9024 439.683 8.9024 439.293 9.29279C438.902 9.68341 438.902 10.3162 439.293 10.7068L443.293 14.7068C443.488 14.9024 443.744 14.9998 444 14.9998C444.256 14.9998 444.511 14.9024 444.707 14.7068L455.707 3.70685C456.097 3.31622 456.097 2.68341 455.707 2.29279C455.316 1.9024 454.683 1.9024 454.293 2.29279Z"/>
  </symbol>

  <!--  -->
  <symbol id="" viewBox='0 0 24 24'>
    
  </symbol>
  <symbol id="" viewBox='0 0 24 24'>
    
  </symbol>
  <symbol id="" viewBox='0 0 24 24'>
    
  </symbol>
  <!--  -->
  <symbol id="star" viewBox='0 0 24 24'>
    <path fill-rule="evenodd" clip-rule="evenodd" d="M778.169 2.20161C778.864 0.599464 781.136 0.599462 781.831 2.20161L783.933 7.04812L789.191 7.54921C790.93 7.71487 791.632 9.87574 790.323 11.0316L786.363 14.528L787.511 19.6842C787.891 21.3887 786.053 22.7242 784.549 21.8364L780 19.1508L775.451 21.8364C773.947 22.7242 772.109 21.3887 772.489 19.6842L773.637 14.528L769.678 11.0316C768.368 9.87574 769.071 7.71487 770.809 7.54921L776.068 7.04812L778.169 2.20161ZM782.102 7.84201L780 2.9955L777.899 7.84201C777.609 8.50881 776.981 8.96568 776.257 9.03462L770.998 9.53572L774.958 13.0321C775.503 13.5132 775.743 14.2524 775.585 14.9618L774.437 20.118L778.986 17.4324C779.611 17.0629 780.389 17.0629 781.015 17.4324L785.564 20.118L784.415 14.9618C784.257 14.2524 784.497 13.5132 785.042 13.0321L789.002 9.53572L783.743 9.03462C783.02 8.96568 782.391 8.50881 782.102 7.84201Z"/>
  </symbol>
  <symbol id="heart" viewBox='0 0 24 24'>
    <path fill-rule="evenodd" clip-rule="evenodd" d="M827.999 19.9072C823.4 17.2878 820.835 14.6843 819.595 12.4254C818.325 10.1134 818.436 8.16615 819.141 6.7841C820.589 3.94337 824.706 3.03499 827.215 6.20797L827.999 7.20002L828.784 6.20802C831.293 3.03491 835.411 3.94344 836.859 6.7841C837.563 8.16613 837.674 10.1134 836.404 12.4254C835.164 14.6843 832.599 17.2878 827.999 19.9072ZM827.999 4.10589C824.47 0.752278 819.264 2.13832 817.359 5.87584C816.313 7.92706 816.299 10.5782 817.842 13.388C819.371 16.173 822.42 19.1125 827.516 21.929L827.999 22.1964L828.483 21.9291C833.579 19.1126 836.628 16.173 838.157 13.3881C839.7 10.5782 839.686 7.92708 838.641 5.87584C836.735 2.13825 831.529 0.752328 827.999 4.10589Z"/>
  </symbol>
  


</svg>